<svg xmlns="http://www.w3.org/2000/svg" width="511.999" height="224.17" viewBox="0 0 511.999 224.17"><g transform="translate(0 0.001)"><path d="M0,132.444A68.247,68.247,0,0,1,68.289,64.157h.288c19.015,0,48.117,10.661,49.271,31.406v.865c0,8.355-8.644,14.983-21.034,19.593-11.237,4.032-24.78,4.321-36.881,8.356-19.882,6.915-22.475,24.491-22.475,33.423a51.31,51.31,0,0,0,.288,5.763,57.323,57.323,0,0,1-2.018-14.406c0-41.493,59.069-29.392,65.119-55.9l.288-2.593c0-8.356-7.781-22.475-30.831-22.475H68.289C45.237,69.92,29.1,88.361,24.2,115.157a83.686,83.686,0,0,0-1.729,17.287c0,35.442,20.746,61.662,45.814,63.679l3.745.287c39.762,0,52.441-47.83,78.084-86.153V90.666c0-14.407-16.424-18.441-16.424-18.441s24.78-1.441,37.169-8.068v20.17c4.611-6.34,21.323-20.457,41.78-20.457H216.1c17,1.728,26.8,10.372,29.966,17l-18.44,14.983v-3.17c0-16.424-9.8-23.914-19.882-23.914h-.575c-21.034.577-36.594,20.746-42.644,28.238-14.407,18.151-25.645,39.762-26.8,42.067-16.424,30.254-31.695,61.661-69.44,61.661A68.249,68.249,0,0,1,0,132.444m133.695,68.289s16.424-4.609,16.424-19.017v-54.17s4.322-9.22,11.237-15.847c2.018-2.018,3.745-2.881,5.186-2.881,2.593,0,4.322,2.881,4.322,6.05v66.848c0,14.407,16.137,19.017,16.137,19.017Z" transform="translate(0 23.435)" fill="#f05855"></path><path d="M203.848,210.914h-2.3c-14.694,0-29.966,12.967-29.966,12.967C186.561,209.473,188,192.184,188,188.152V26.509C188,12.1,171.578,8.356,171.578,8.356S194.053,7.2,208.747,0v108.34C219.12,95.372,234.679,87.3,254.273,87.3a68.288,68.288,0,0,1,0,136.576c-28.813,0-34.865-11.526-50.424-12.967m95.95-55.322c0-35.729-17.864-62.235-45.525-64.254H251.1c-15.273,0-31.985,7.781-42.357,24.2v79.238c10.372,16.712,27.373,25.355,43.221,25.355h2.3c25.068-1.728,45.525-29.1,45.525-64.542" transform="translate(62.956 0)" fill="#f05855"></path><path d="M369.331,179.989c-8.644,11.236-20.747,20.457-40.628,20.457-2.881,0-5.762-.288-8.931-.577-22.763-2.881-37.746-18.153-37.746-34.863a42.934,42.934,0,0,1,.577-6.051c6.05-27.086,36.016-30.831,55.609-36.881,7.491-2.306,30.831-6.051,31.119-13.832l.288-4.034c0-13.254-3.458-36.593-28.526-37.168-9.8,0-31.406,6.625-35.153,44.66l-19.592-10.085C299.6,70.208,323.806,63.87,340.23,63.87h1.152c45.525.864,48.7,35.44,48.7,51.577v51.287a126.187,126.187,0,0,0,.864,13.255c.576,4.609,2.881,10.084,7.779,11.236l1.442.288c2.3,0,4.9-1.152,8.355-2.3a28.537,28.537,0,0,1-23.05,11.237c-7.491,0-15.271-3.747-16.135-20.457m0-5.763V114.87c-14.983,12.39-59.356,9.8-63.965,44.085V162.7c0,10.372,3.744,31.406,25.931,33.136h2.593c14.983,0,27.661-9.22,35.442-21.61" transform="translate(103.482 23.435)" fill="#f05855"></path><path d="M98.854,127.489a5.3,5.3,0,0,1,.655-3.506,15.462,15.462,0,0,0,1.572-9.507c-.384-2.685-.593-5.4-.73-8.113a65.906,65.906,0,0,0-1.076-10.248A19.483,19.483,0,0,0,97.16,90.01a4.215,4.215,0,0,0-1-1.118.693.693,0,0,0-1.15.272,2.239,2.239,0,0,0-.209.854,93.419,93.419,0,0,1-1.96,12.435,26.375,26.375,0,0,0-.473,3.14,54.909,54.909,0,0,0,.962,13.683,9.916,9.916,0,0,0,3.163,6.08,4.149,4.149,0,0,1,1.145,1.627c.116.31.215.627.325.94.144-.06.284-.112.431-.178.161-.074.309-.171.463-.256" transform="translate(33.854 32.542)" fill="#f05855"></path><path d="M133.522,86.188c.525,2.8.832,5.632,1.236,8.45a1.8,1.8,0,0,1-.722,1.875,3.359,3.359,0,0,0-.927,1.114,9.6,9.6,0,0,0-1,6.222,14.2,14.2,0,0,0,6.63,9.608,10.683,10.683,0,0,0,2.225.843,3.514,3.514,0,0,0,4.124-1.914,6.786,6.786,0,0,0,.67-2.54,11.553,11.553,0,0,0-1.1-5.3,27.91,27.91,0,0,0-5.464-7.519,3.96,3.96,0,0,0-2.389-1.355,1.159,1.159,0,0,1-1.044-1.189c-.029-.267-.037-.534-.074-.8-.51-3.607-.831-7.256-2.331-10.648-.057-.131.007-.316.014-.458.165-.012.272-.053.332-.018a2.982,2.982,0,0,1,.53.391,41.433,41.433,0,0,0,6.2,5.259,1.585,1.585,0,0,1,.651,1.238,26.128,26.128,0,0,0,.764,3.778,11.137,11.137,0,0,0,5.76,6.865,5.7,5.7,0,0,0,7.958-3.939,6.968,6.968,0,0,0-1.308-5.826,10.86,10.86,0,0,0-8.674-4.274c-1.439-.074-2.951-.1-4.135,1.085-.507.507-1,.044-1.407-.291a90.434,90.434,0,0,1-7.764-7.109q-.256.861-.477,1.746a16.53,16.53,0,0,1,1.721,4.708m3.421,10.7a3.957,3.957,0,0,1,.752.547,22.066,22.066,0,0,1,6.568,9.216,8.582,8.582,0,0,1,.409,3.806,3.451,3.451,0,0,1-1.275,2.268.831.831,0,0,1-1.2.042,9.119,9.119,0,0,1-.8-.7,22.188,22.188,0,0,1-5.265-8.382c-.455-1.43-.711-2.924-1.073-4.458a12.568,12.568,0,0,1,.342-1.772c.279-.832.764-.986,1.543-.57m8.219-9.511a10.408,10.408,0,0,1,5.361,1.673c2.167,1.359,3.544,3.233,3.245,5.968a4.02,4.02,0,0,1-.249,1.028c-.377.953-.636,1.114-1.624.872a13.741,13.741,0,0,1-9.079-7.273c-.809-1.5-.275-2.231,2.346-2.268" transform="translate(48.361 29.257)" fill="#f05855"></path><path d="M135.994,80.344a6.322,6.322,0,0,1,4.376,1.53,26.772,26.772,0,0,0,5.979,3.825,52.345,52.345,0,0,0,10.579,3.159,52.853,52.853,0,0,0,14.976.668,1.445,1.445,0,0,0,1.02-.478c.273-.446-.075-.843-.462-1.147-.827-.647-1.628-1.327-2.465-1.959-1.856-1.4-3.795-2.707-5.577-4.2a43.282,43.282,0,0,0-6.543-4.471,10.489,10.489,0,0,0-3.041-1.173,22.244,22.244,0,0,0-11.1.28,11.53,11.53,0,0,0-3.547,1.674,5.191,5.191,0,0,1-4.318,1.076,20.246,20.246,0,0,0-2.288-.246,11.339,11.339,0,0,0-1.027,1.364c1.148.066,2.3.12,3.441.094" transform="translate(48.637 27.716)" fill="#f05855"></path><path d="M104.055,112.207c.217-1.923.521-3.838.835-5.748a2.08,2.08,0,0,1,.543-1.247,15.881,15.881,0,0,0,3.9-5.183,15,15,0,0,0,1.345-3.661,6.55,6.55,0,0,0-.1-4.332,5.239,5.239,0,0,0-6.835-2.821,7.185,7.185,0,0,0-2.951,2.5A10.4,10.4,0,0,0,99.266,99a7.842,7.842,0,0,0,4.214,6.482,1.086,1.086,0,0,1,.6,1.275c-.257,1.763-.477,3.532-.742,5.293a21.933,21.933,0,0,0-.282,3.382c.277-.4.548-.8.82-1.2.046-.675.1-1.349.174-2.02m-3.36-13.836a9.4,9.4,0,0,1,1.325-6,4.91,4.91,0,0,1,2.2-1.916c1.227-.54,1.554-.4,2.124,1.072a11.849,11.849,0,0,1-.07,8.366c-.436,1.058-.834,2.134-1.312,3.171-.485,1.054-.913,1.128-1.8.373a7.065,7.065,0,0,1-2.465-5.06" transform="translate(36.386 32.581)" fill="#f05855"></path></g></svg>