<svg xmlns="http://www.w3.org/2000/svg" xmlns:xlink="http://www.w3.org/1999/xlink" width="342.518" height="194.827" viewBox="0 0 342.518 194.827"><defs><clipPath id="a"><rect width="342.518" height="149.965" fill="none"></rect></clipPath></defs><g transform="translate(-1359 -180.513)"><g transform="translate(1359 180.513)"><g transform="translate(0 0)" clip-path="url(#a)"><path d="M0,85.208A45.657,45.657,0,0,1,45.684,39.525h.193c12.721,0,32.19,7.132,32.962,21.01v.579c0,5.589-5.784,10.023-14.073,13.107-7.517,2.7-16.576,2.891-24.672,5.591C26.794,84.437,25.06,96.2,25.06,102.17a34.3,34.3,0,0,0,.193,3.855,38.278,38.278,0,0,1-1.35-9.637c0-27.756,39.515-19.662,43.563-37.395l.193-1.734c0-5.589-5.206-15.035-20.626-15.035h-1.35C30.264,43.381,19.469,55.716,16.193,73.644a55.941,55.941,0,0,0-1.157,11.565c0,23.71,13.878,41.25,30.647,42.6L48.19,128c26.6,0,35.081-32,52.238-57.634V57.259c0-9.639-10.988-12.337-10.988-12.337s16.578-.964,24.866-5.4V53.018c3.083-4.241,14.264-13.685,27.949-13.685h2.314c11.373,1.157,17.926,6.938,20.046,11.372L152.279,60.728v-2.12c0-10.987-6.553-16-13.3-16h-.385c-14.073.386-24.48,13.88-28.53,18.891A188.945,188.945,0,0,0,92.139,89.642c-10.988,20.238-21.2,41.25-46.456,41.25A45.657,45.657,0,0,1,0,85.208m89.44,45.684s10.988-3.084,10.988-12.723V81.932a40.7,40.7,0,0,1,7.517-10.6c1.35-1.348,2.507-1.927,3.469-1.927,1.736,0,2.893,1.927,2.893,4.048v44.718c0,9.639,10.794,12.723,10.794,12.723Z" transform="translate(0 19.073)" fill="#af4a3a"></path><path d="M127.25,141.1h-1.541c-9.83,0-20.048,8.673-20.048,8.673a35.208,35.208,0,0,0,10.988-23.9V17.733c0-9.637-10.988-12.144-10.988-12.144S120.7,4.819,130.527,0V72.477C137.467,63.8,147.876,58.4,160.983,58.4a45.684,45.684,0,1,1,0,91.367c-19.276,0-23.324-7.71-33.733-8.673m64.189-37.01c0-23.9-11.951-41.634-30.456-42.985h-2.12A33.792,33.792,0,0,0,130.527,77.3V130.3c6.939,11.178,18.312,16.961,28.913,16.961h1.543c16.769-1.155,30.456-19.467,30.456-43.177" transform="translate(51.237 0)" fill="#af4a3a"></path><path d="M232.083,117.014C226.3,124.532,218.2,130.7,204.9,130.7c-1.927,0-3.855-.192-5.977-.386-15.226-1.926-25.25-12.144-25.25-23.322a28.7,28.7,0,0,1,.385-4.048c4.048-18.12,24.094-20.626,37.2-24.672,5.012-1.543,20.626-4.048,20.819-9.254l.193-2.7c0-8.866-2.313-24.48-19.083-24.865-6.554,0-21.012,4.432-23.517,29.877l-13.107-6.746c8.866-21.012,25.058-25.251,36.045-25.251h.771c30.456.578,32.576,23.71,32.576,34.5v34.311a84.148,84.148,0,0,0,.579,8.866c.385,3.084,1.927,6.746,5.2,7.518l.962.192c1.543,0,3.277-.771,5.591-1.541a19.09,19.09,0,0,1-15.421,7.517c-5.012,0-10.216-2.505-10.794-13.685m0-3.855V73.451C222.06,81.739,192.375,80,189.292,102.943v2.505c0,6.941,2.505,21.01,17.347,22.168h1.734c10.023,0,18.505-6.168,23.71-14.457" transform="translate(84.22 19.073)" fill="#af4a3a"></path><path d="M61.227,80.573a3.539,3.539,0,0,1,.438-2.345,10.338,10.338,0,0,0,1.051-6.36c-.257-1.8-.4-3.614-.487-5.427a44.4,44.4,0,0,0-.72-6.856A13.066,13.066,0,0,0,60.094,55.5a2.827,2.827,0,0,0-.673-.747.463.463,0,0,0-.768.183,1.48,1.48,0,0,0-.141.572A62.221,62.221,0,0,1,57.2,63.825a17.692,17.692,0,0,0-.316,2.1,36.769,36.769,0,0,0,.643,9.155,6.643,6.643,0,0,0,2.117,4.066,2.793,2.793,0,0,1,.766,1.088c.077.208.143.42.217.63.1-.04.192-.074.288-.119s.206-.114.31-.171" transform="translate(27.552 26.485)" fill="#af4a3a"></path><path d="M82.317,53.42c.35,1.87.557,3.767.826,5.653a1.2,1.2,0,0,1-.481,1.255,2.235,2.235,0,0,0-.621.745,6.421,6.421,0,0,0-.673,4.162A9.5,9.5,0,0,0,85.8,71.663a7.245,7.245,0,0,0,1.489.564,2.353,2.353,0,0,0,2.759-1.28,4.536,4.536,0,0,0,.448-1.7,7.738,7.738,0,0,0-.735-3.549,18.715,18.715,0,0,0-3.656-5.031,2.646,2.646,0,0,0-1.6-.906.777.777,0,0,1-.7-.8c-.018-.178-.024-.356-.049-.533A26.277,26.277,0,0,0,82.2,51.311c-.039-.089.006-.212.009-.307.111-.007.183-.036.223-.012a2.064,2.064,0,0,1,.355.261,27.611,27.611,0,0,0,4.15,3.518,1.056,1.056,0,0,1,.435.83,17.48,17.48,0,0,0,.512,2.527,7.442,7.442,0,0,0,3.853,4.591,3.814,3.814,0,0,0,5.323-2.636,4.662,4.662,0,0,0-.875-3.9,7.265,7.265,0,0,0-5.8-2.86,3.338,3.338,0,0,0-2.766.726c-.339.34-.673.028-.941-.2A60.118,60.118,0,0,1,81.486,49.1q-.172.577-.321,1.167a11.09,11.09,0,0,1,1.152,3.15m2.288,7.159a2.567,2.567,0,0,1,.5.365,14.772,14.772,0,0,1,4.4,6.165,5.755,5.755,0,0,1,.273,2.547,2.305,2.305,0,0,1-.854,1.518.555.555,0,0,1-.8.027,6.224,6.224,0,0,1-.539-.466,14.831,14.831,0,0,1-3.522-5.607c-.3-.956-.475-1.956-.717-2.982a8.5,8.5,0,0,1,.229-1.185c.186-.557.511-.659,1.032-.382m5.5-6.363a6.957,6.957,0,0,1,3.586,1.12,4,4,0,0,1,2.171,3.993,2.662,2.662,0,0,1-.166.686c-.252.637-.425.747-1.087.584a9.2,9.2,0,0,1-6.073-4.865c-.541-1.007-.183-1.492,1.57-1.518" transform="translate(39.359 23.811)" fill="#af4a3a"></path><path d="M83.931,49.733a4.234,4.234,0,0,1,2.927,1.023,17.853,17.853,0,0,0,4,2.559,35.007,35.007,0,0,0,7.076,2.113,35.35,35.35,0,0,0,10.02.448.978.978,0,0,0,.682-.321c.183-.3-.049-.564-.309-.766-.554-.434-1.088-.888-1.65-1.311-1.241-.938-2.538-1.81-3.73-2.808a29.131,29.131,0,0,0-4.378-2.992,7.026,7.026,0,0,0-2.034-.783,14.855,14.855,0,0,0-7.426.187,7.7,7.7,0,0,0-2.373,1.12,3.469,3.469,0,0,1-2.89.719,14.014,14.014,0,0,0-1.531-.163,7.783,7.783,0,0,0-.686.912c.768.045,1.535.082,2.3.064" transform="translate(39.584 22.557)" fill="#af4a3a"></path><path d="M64.338,70.345c.147-1.286.349-2.567.56-3.846a1.378,1.378,0,0,1,.364-.832A10.654,10.654,0,0,0,67.869,62.2a10.09,10.09,0,0,0,.9-2.45,4.381,4.381,0,0,0-.068-2.9,3.505,3.505,0,0,0-4.572-1.887,4.8,4.8,0,0,0-1.975,1.672,6.955,6.955,0,0,0-1.019,4.872,5.243,5.243,0,0,0,2.82,4.334.728.728,0,0,1,.4.854c-.172,1.181-.318,2.363-.5,3.542a14.569,14.569,0,0,0-.189,2.262c.186-.264.367-.535.549-.8.03-.451.064-.9.114-1.353m-2.247-9.256a6.291,6.291,0,0,1,.886-4.017,3.278,3.278,0,0,1,1.469-1.283c.821-.361,1.039-.264,1.42.717a7.927,7.927,0,0,1-.046,5.6c-.291.707-.557,1.427-.878,2.122s-.61.754-1.2.249a4.724,4.724,0,0,1-1.648-3.386" transform="translate(29.613 26.517)" fill="#af4a3a"></path></g></g><path d="M-78.54-2.76-74.1-16h4.3v.44a5.026,5.026,0,0,0-1.41.14.885.885,0,0,0-.57.44,2.422,2.422,0,0,0-.14.96V-2a2.491,2.491,0,0,0,.14.98.854.854,0,0,0,.57.43,5.4,5.4,0,0,0,1.41.13V0h-5.96V-.46a5.289,5.289,0,0,0,1.39-.13.854.854,0,0,0,.57-.43A2.491,2.491,0,0,0-73.66-2V-14.84h-.06L-78.74.46h-.8l-4.92-15.1h-.06L-84.48-2a2.491,2.491,0,0,0,.14.98.854.854,0,0,0,.57.43,5.4,5.4,0,0,0,1.41.13V0h-4.98V-.46a5.289,5.289,0,0,0,1.39-.13.891.891,0,0,0,.58-.43A2.34,2.34,0,0,0-85.22-2V-14.02a2.276,2.276,0,0,0-.15-.96.924.924,0,0,0-.58-.44,4.926,4.926,0,0,0-1.39-.14V-16h4.38L-78.6-2.76Zm21.46-11.26a2.276,2.276,0,0,0-.15-.96.924.924,0,0,0-.58-.44,4.926,4.926,0,0,0-1.39-.14V-16h5.96v.44a4.926,4.926,0,0,0-1.39.14.885.885,0,0,0-.57.44,2.422,2.422,0,0,0-.14.96V-2a2.491,2.491,0,0,0,.14.98.854.854,0,0,0,.57.43,5.289,5.289,0,0,0,1.39.13V0H-59.2V-.46a5.289,5.289,0,0,0,1.39-.13.891.891,0,0,0,.58-.43A2.34,2.34,0,0,0-57.08-2ZM-33.3-5.8v.76h-6.16V-5.8Zm-3.22-7.64L-40.12-1.9a2.88,2.88,0,0,0-.18.92q.02.28.38.4a4.83,4.83,0,0,0,1.32.12V0h-4.24V-.46a3.37,3.37,0,0,0,.97-.11,1.1,1.1,0,0,0,.57-.41,3.338,3.338,0,0,0,.42-.92l4.56-14.56h.8L-30.84-1.9a3.132,3.132,0,0,0,.43.92,1.155,1.155,0,0,0,.57.41,3.353,3.353,0,0,0,.98.11V0H-34.3V-.46a4.83,4.83,0,0,0,1.32-.12q.36-.12.38-.39a2.833,2.833,0,0,0-.2-.93l-3.66-11.54ZM-9.66-2.76-5.22-16h4.3v.44a5.026,5.026,0,0,0-1.41.14.885.885,0,0,0-.57.44,2.422,2.422,0,0,0-.14.96V-2a2.491,2.491,0,0,0,.14.98.854.854,0,0,0,.57.43A5.4,5.4,0,0,0-.92-.46V0H-6.88V-.46A5.289,5.289,0,0,0-5.49-.59a.854.854,0,0,0,.57-.43A2.491,2.491,0,0,0-4.78-2V-14.84h-.06L-9.86.46h-.8l-4.92-15.1h-.06L-15.6-2a2.491,2.491,0,0,0,.14.98.854.854,0,0,0,.57.43,5.4,5.4,0,0,0,1.41.13V0h-4.98V-.46a5.289,5.289,0,0,0,1.39-.13.891.891,0,0,0,.58-.43A2.34,2.34,0,0,0-16.34-2V-14.02a2.276,2.276,0,0,0-.15-.96.924.924,0,0,0-.58-.44,4.926,4.926,0,0,0-1.39-.14V-16h4.38L-9.72-2.76ZM11.8-14.02a2.276,2.276,0,0,0-.15-.96.924.924,0,0,0-.58-.44,4.926,4.926,0,0,0-1.39-.14V-16h5.96v.44a4.926,4.926,0,0,0-1.39.14.885.885,0,0,0-.57.44,2.422,2.422,0,0,0-.14.96V-2a2.491,2.491,0,0,0,.14.98.854.854,0,0,0,.57.43,5.289,5.289,0,0,0,1.39.13V0H9.68V-.46a5.289,5.289,0,0,0,1.39-.13.891.891,0,0,0,.58-.43A2.34,2.34,0,0,0,11.8-2ZM27.7.4a.768.768,0,0,1-.62-.29,1.077,1.077,0,0,1-.24-.71,1.037,1.037,0,0,1,.32-.81,1.147,1.147,0,0,1,.8-.29,1.184,1.184,0,0,1,.92.43,1.735,1.735,0,0,1,.38,1.19,3.5,3.5,0,0,1-.57,1.94A4.34,4.34,0,0,1,26.9,3.34V2.9a4.134,4.134,0,0,0,1.21-1A2.015,2.015,0,0,0,28.6.6q0-.46-.2-.46a.162.162,0,0,0-.1.03.35.35,0,0,1-.1.05A.822.822,0,0,1,27.7.4ZM65.5-15.52l.3,3.16-.46.04a9.977,9.977,0,0,0-.31-1.92,1.428,1.428,0,0,0-.52-.81,1.87,1.87,0,0,0-.99-.21h-5.3v7h3.06a2.218,2.218,0,0,0,.97-.16.947.947,0,0,0,.44-.64,6.378,6.378,0,0,0,.13-1.52h.46V-5.2h-.46a6.378,6.378,0,0,0-.13-1.52.947.947,0,0,0-.44-.64,2.218,2.218,0,0,0-.97-.16H58.22V-2a2.491,2.491,0,0,0,.14.98.854.854,0,0,0,.57.43,5.289,5.289,0,0,0,1.39.13V0H54.36V-.46a5.289,5.289,0,0,0,1.39-.13.891.891,0,0,0,.58-.43A2.34,2.34,0,0,0,56.48-2V-14.02a2.276,2.276,0,0,0-.15-.96.924.924,0,0,0-.58-.44,4.926,4.926,0,0,0-1.39-.14V-16H65.44ZM79.86-16h2.3v.44a4.926,4.926,0,0,0-1.39.14.885.885,0,0,0-.57.44,2.422,2.422,0,0,0-.14.96v12a2.73,2.73,0,0,0,.09.81.545.545,0,0,0,.32.36,2.159,2.159,0,0,0,.73.09h3.32a1.769,1.769,0,0,0,1.03-.26,2.286,2.286,0,0,0,.68-1.03,19.064,19.064,0,0,0,.71-2.43l.46.1L86.44-.42l-.1.42H76.2V-.46a5.289,5.289,0,0,0,1.39-.13.891.891,0,0,0,.58-.43A2.34,2.34,0,0,0,78.32-2V-14.02a2.276,2.276,0,0,0-.15-.96.924.924,0,0,0-.58-.44,4.926,4.926,0,0,0-1.39-.14V-16h3.66Z" transform="translate(1530.34 372)" fill="#af4a3a"></path></g></svg>