<svg xmlns="http://www.w3.org/2000/svg" xmlns:xlink="http://www.w3.org/1999/xlink" width="780" height="690" viewBox="0 0 780 690"><defs><clipPath id="a"><rect width="780" height="690" transform="translate(1141 390)" fill="none"></rect></clipPath><clipPath id="b"><rect width="779" height="1080" transform="translate(1141)" fill="#d7c9b1" stroke="#707070" stroke-width="1"></rect></clipPath><clipPath id="c"><rect width="587.554" height="1285.054" fill="none"></rect></clipPath></defs><g transform="translate(-1141 -390)" clip-path="url(#a)"><g clip-path="url(#b)"><g transform="translate(1236.723 404)"><g clip-path="url(#c)"><path d="M252.124,234.118H40.894a.992.992,0,1,1,0-1.984h211.23a.992.992,0,1,1,0,1.984" transform="translate(49.427 287.549)" fill="#44464c"></path><path d="M233.675,238.36H46.2a.991.991,0,1,1,0-1.981H233.675a.991.991,0,1,1,0,1.981" transform="translate(56 292.807)" fill="#44464c"></path><path d="M228,245.382H47.832a.992.992,0,0,1,0-1.984H228a.992.992,0,0,1,0,1.984" transform="translate(58.022 301.502)" fill="#44464c"></path><path d="M200.181,250.933H55.829a.992.992,0,0,1,0-1.984H200.181a.992.992,0,0,1,0,1.984" transform="translate(67.93 308.378)" fill="#44464c"></path><path d="M185.423,256.482H60.073a.992.992,0,0,1,0-1.983h125.35a.992.992,0,1,1,0,1.983" transform="translate(73.187 315.251)" fill="#44464c"></path><path d="M186.275,266.6H59.83a.992.992,0,0,1,0-1.984H186.275a.992.992,0,1,1,0,1.984" transform="translate(72.884 327.788)" fill="#44464c"></path><path d="M190.816,272.643H58.524a.992.992,0,0,1,0-1.984H190.816a.992.992,0,0,1,0,1.984" transform="translate(71.266 335.27)" fill="#44464c"></path><path d="M178.044,278.03H62.2a.992.992,0,0,1,0-1.984H178.044a.992.992,0,0,1,0,1.984" transform="translate(75.816 341.943)" fill="#44464c"></path><path d="M182.3,258.768H60.973a.992.992,0,0,1,0-1.984H182.3a.992.992,0,0,1,0,1.984" transform="translate(74.3 318.083)" fill="#44464c"></path><path d="M90.912,266.848a5.358,5.358,0,0,1-4.742-2.339.992.992,0,1,1,1.677-1.061c.927,1.466,2.778,1.493,3.8,1.372a.992.992,0,0,1,.224,1.972,8.889,8.889,0,0,1-.96.056" transform="translate(106.552 325.768)" fill="#44464c"></path><path d="M66.473,271.114h-.034a.93.93,0,0,1-.958-.913c0-.027.011-.206.013-.233a7.588,7.588,0,0,0-.146-3.022c-.307-.345-.806-.231-1.538-.036a3.172,3.172,0,0,1-4.421-2.1,3.872,3.872,0,0,1-.009-2.1c.622-2.344,3.154-4.585,5.814-4.081a.989.989,0,0,1,.788,1.16,1,1,0,0,1-1.16.788c-1.5-.271-3.143,1.207-3.519,2.628a1.9,1.9,0,0,0-.013,1.037,1.553,1.553,0,0,0,.745.918c.2.128.788-.038,1.265-.168a3.459,3.459,0,0,1,3.23.264,2.144,2.144,0,0,1,.681,1.012,9.455,9.455,0,0,1,.26,3.857,1.067,1.067,0,0,1-1,.989" transform="translate(73.382 320.279)" fill="#44464c"></path><path d="M69,269.578a1,1,0,0,1-.983-.86c-.224-1.679.795-2.969,1.692-4.108.712-.9,1.384-1.753,1.294-2.595a1.546,1.546,0,0,0-.745-1.316c-1.086-.642-3.282-.289-4.889.4a.993.993,0,0,1-.775-1.829c1.919-.808,4.818-1.37,6.671-.275a3.546,3.546,0,0,1,1.71,2.819c.172,1.643-.826,2.908-1.71,4.027-.748.949-1.4,1.771-1.283,2.617a.99.99,0,0,1-.848,1.115.949.949,0,0,1-.134.009" transform="translate(79.259 320.063)" fill="#44464c"></path><path d="M66.763,270.4c-.043,0-.087,0-.132-.007a3.451,3.451,0,0,1-2.776-2.315A8.343,8.343,0,0,1,64.9,260.74a.99.99,0,1,1,1.534,1.254,6.5,6.5,0,0,0-.732,5.355c.381.969.992,1.05,1.193,1.077a.992.992,0,0,1-.13,1.974" transform="translate(78.57 322.531)" fill="#44464c"></path><path d="M74.212,267.482a.991.991,0,0,1-.976-.824c-.262-1.52-1.737-2.03-3.956-2.639l-.831-.233a.991.991,0,0,1,.562-1.9l.79.219c2.064.566,4.894,1.341,5.389,4.218a.993.993,0,0,1-.808,1.146,1.117,1.117,0,0,1-.17.013" transform="translate(83.911 324.353)" fill="#44464c"></path><path d="M76.818,268.368a.993.993,0,0,1-.922-.627,21.429,21.429,0,0,1-.925-3.345c-.36-1.639-.7-3.188-1.473-3.542-.405-.188-1.285-.2-3.15.815a.992.992,0,0,1-.947-1.744c2.129-1.155,3.692-1.442,4.923-.873,1.675.766,2.116,2.781,2.583,4.916a20.056,20.056,0,0,0,.833,3.042.992.992,0,0,1-.922,1.357" transform="translate(85.326 320.543)" fill="#44464c"></path><path d="M84.907,270.51a.992.992,0,0,1-.022-1.984c.934-.022,1.135-.233,1.137-.235.242-.813-2.843-4.144-5.12-5.776-2.2-1.574-3.971-2.109-4.618-1.393-.884.974-.381,3.808.942,5.319a1.842,1.842,0,0,0,2.733.434.991.991,0,0,1,1.128,1.63,3.8,3.8,0,0,1-5.355-.757c-1.847-2.113-2.651-6.049-.918-7.959,1.021-1.13,3.11-1.849,7.242,1.113.069.049,6.77,5.017,5.852,7.988-.318,1.034-1.321,1.578-2.977,1.619Z" transform="translate(91.487 320.592)" fill="#44464c"></path><path d="M88.844,271.966a.989.989,0,0,1-.737-1.654c.134-.146.233-.264.307-.36a4.624,4.624,0,0,1-1.379-.792,5.014,5.014,0,0,0-1.881-1.1,1.447,1.447,0,0,1-1.07-.909c-.188-.656.159-1.09.918-2.044.271-.338.62-.779,1.057-1.35.282-.372.56-.7.81-.994a4.424,4.424,0,0,0,.795-1.115c0-.013-.067-.345-1.384-1.182a4.466,4.466,0,0,0-3.434-.376,4.151,4.151,0,0,0-2.63,1.858.993.993,0,0,1-1.748-.94,6.079,6.079,0,0,1,3.877-2.836,6.376,6.376,0,0,1,5,.622c1.489.94,2.149,1.684,2.284,2.559.159,1.034-.49,1.8-1.242,2.691-.231.273-.486.573-.745.911-.448.589-.806,1.041-1.084,1.388l-.085.105a7.315,7.315,0,0,1,1.881,1.227,2.9,2.9,0,0,0,.824.446,1.955,1.955,0,0,1,1.39,1.283,2.679,2.679,0,0,1-.983,2.239.982.982,0,0,1-.737.327" transform="translate(97.052 319.502)" fill="#44464c"></path><path d="M93.348,265.38a2.541,2.541,0,0,1-1.809-.6,3.137,3.137,0,0,1-.7-2.514c.013-.788,0-1.283-.307-1.486-.927-.627-2.445.215-3.786.949-.39.215-.761.416-1.1.58a.992.992,0,0,1-.851-1.793c.307-.146.642-.329.994-.524,1.654-.911,3.918-2.156,5.848-.86a3.383,3.383,0,0,1,1.182,3.17,3.019,3.019,0,0,0,.078,1.032,1.373,1.373,0,0,0,.741.052c.4-.034.826-.846,1.2-1.563.638-1.222,1.433-2.745,3.163-2.937a3.418,3.418,0,0,1,3.087,1.187,2.506,2.506,0,0,1,.41,2.418.991.991,0,0,1-1.858-.69.53.53,0,0,0-.116-.506,1.4,1.4,0,0,0-1.3-.437c-.634.069-1.054.79-1.625,1.883-.609,1.166-1.3,2.492-2.783,2.621q-.242.02-.463.02" transform="translate(104.334 320.296)" fill="#44464c"></path><path d="M91.767,268.291a.993.993,0,0,1-.607-1.778c.114-.087.208-.166.287-.233a21.175,21.175,0,0,0-2.1-.322c-2.252-.275-4.583-.56-5.406-2a2.329,2.329,0,0,1-.025-2.174.991.991,0,1,1,1.818.79c-.031.069-.125.3-.072.4.329.578,2.669.862,3.924,1.016,2.187.264,3.77.459,4.108,1.7.313,1.137-.875,2.051-1.321,2.4a.991.991,0,0,1-.6.206" transform="translate(103.633 323.543)" fill="#44464c"></path><path d="M92.067,264.816a.8.8,0,0,1-.163-.013.99.99,0,0,1-.819-.833c-.074.132-.157.309-.266.544l-.945-.322-.848-.524c.47-1,1.057-2.225,3.119-2.006a1,1,0,0,1,.853.763,3.992,3.992,0,0,1,.047,1.563.989.989,0,0,1-.976.828m-2.194-.625h0Z" transform="translate(110.277 324.093)" fill="#44464c"></path><path d="M96.614,269.912a3.618,3.618,0,0,1-2.745-.826c-1.059-1.2-.627-3.092-.2-4.594l-.036.013a.99.99,0,1,1-.826-1.8,4.017,4.017,0,0,1,2.366-.41.988.988,0,0,1,.819,1.139c-.054.32-.172.748-.309,1.227-.264.916-.754,2.624-.327,3.105.6.416,3.712.047,4.285-.421.235-.293-.161-1.762-.4-2.639-.472-1.751-.96-3.56.128-4.728.994-1.066,2.707-.871,3.909-.636a.991.991,0,1,1-.383,1.945c-1.675-.331-2.039,0-2.075.045-.338.358.083,1.923.336,2.857.441,1.637.9,3.331-.016,4.448-.777.951-3.166,1.247-4.321,1.269-.067,0-.137,0-.2,0" transform="translate(114.242 321.024)" fill="#44464c"></path><path d="M97.3,267.484a.991.991,0,0,1-.524-1.834c1.48-.922,1.319-1.831,1.07-2.433a.991.991,0,1,1,1.831-.759c.779,1.88.1,3.656-1.854,4.876a1,1,0,0,1-.524.15" transform="translate(119.297 324.35)" fill="#44464c"></path><path d="M102.814,271.528a1.009,1.009,0,0,1-.45-.107.994.994,0,0,1-.432-1.337c.723-1.415.651-1.966.587-2.136-.125-.327-.748-.569-1.406-.826-1.2-.468-2.836-1.108-3.443-3.054a3.645,3.645,0,0,1,.215-2.955c.634-1.14,1.963-1.984,3.949-2.5a.99.99,0,1,1,.5,1.916,4.279,4.279,0,0,0-2.713,1.545,1.732,1.732,0,0,0-.056,1.4c.3.963,1.059,1.323,2.27,1.8a3.837,3.837,0,0,1,2.539,1.968c.36.949.146,2.138-.674,3.745a.992.992,0,0,1-.884.54" transform="translate(120.724 320.307)" fill="#44464c"></path><path d="M105.386,270.756a.979.979,0,0,1-.62-.217.99.99,0,0,1-.152-1.395,2.138,2.138,0,0,0,.658-1.6c-.157-.79-1.469-1.509-2.525-2.086-1.395-.761-2.707-1.484-2.642-2.825.06-1.256,1.328-2.277,4.524-3.647a.993.993,0,0,1,.779,1.827c-3,1.281-3.307,1.9-3.333,1.966.123.121,1.025.613,1.621.94,1.419.775,3.186,1.742,3.522,3.436a3.944,3.944,0,0,1-1.059,3.235.994.994,0,0,1-.772.367" transform="translate(123.999 320.711)" fill="#44464c"></path><path d="M106.8,271.266a.989.989,0,0,1-.938-.667c-1.115-3.246.533-4.207,1.858-4.979a4.543,4.543,0,0,0,1.9-1.652c.62-1.1.609-1.983-.034-2.635a3.718,3.718,0,0,0-4.135-.421.991.991,0,0,1-.951-1.74,5.683,5.683,0,0,1,6.5.766c1.283,1.3,1.408,3.128.347,5.006a6.408,6.408,0,0,1-2.624,2.391c-1.2.7-1.567.911-.981,2.619a.994.994,0,0,1-.616,1.26,1.076,1.076,0,0,1-.322.052" transform="translate(128.801 320.201)" fill="#44464c"></path><path d="M106.02,264.021a.99.99,0,0,1-.929-.645,1.92,1.92,0,0,0-1.473-1.2.991.991,0,0,1,.419-1.937,3.9,3.9,0,0,1,2.913,2.447.992.992,0,0,1-.929,1.339" transform="translate(127.385 322.331)" fill="#44464c"></path><path d="M109.378,271.326a.992.992,0,0,1-.018-1.984c1.623-.029,1.91-.345,1.912-.349a6.249,6.249,0,0,0-.94-1.845,6.07,6.07,0,0,1-1.265-3.058c.056-2.476,1.659-2.924,2.946-3.284l.4-.112-.013,0a.992.992,0,1,1,.54-1.91,4.4,4.4,0,0,1,2.4,1.462.991.991,0,0,1-.255,1.437,8.878,8.878,0,0,1-2.532,1.037c-1.265.354-1.475.441-1.5,1.422a5.681,5.681,0,0,0,.958,1.954c.817,1.294,1.661,2.635,1,3.857-.636,1.175-2.266,1.354-3.613,1.377Z" transform="translate(134.26 320.509)" fill="#44464c"></path><path d="M112.643,271.69a.944.944,0,0,1-.347-.065.99.99,0,0,1-.582-1.276,10.707,10.707,0,0,1,3.77-4.639c2.008-1.614,2.839-2.284.723-5.422a.991.991,0,0,1,1.643-1.108c3.136,4.65.873,6.47-1.124,8.077a8.782,8.782,0,0,0-3.154,3.79.993.993,0,0,1-.929.642" transform="translate(138.304 320.509)" fill="#44464c"></path><path d="M114.928,267.281a.983.983,0,0,1-.663-.253.994.994,0,0,1-.076-1.4,10.2,10.2,0,0,0,2.008-2.989.991.991,0,0,1,1.847.721,12.111,12.111,0,0,1-2.378,3.593.989.989,0,0,1-.739.329" transform="translate(141.135 324.553)" fill="#44464c"></path><path d="M112.479,265.6a1.007,1.007,0,0,1-.582-.188.99.99,0,0,1-.219-1.384c.772-1.07,1.531-2.335,1.289-3.622a.991.991,0,1,1,1.948-.369c.385,2.042-.669,3.826-1.632,5.154a.986.986,0,0,1-.8.41" transform="translate(138.103 321.116)" fill="#44464c"></path><path d="M71.094,900.318a5.543,5.543,0,0,1-5.536-5.539V285.572a4.321,4.321,0,0,1,4.316-4.316h2.438a4.322,4.322,0,0,1,4.318,4.316V894.779a5.545,5.545,0,0,1-5.536,5.539M69.874,283.24a2.336,2.336,0,0,0-2.333,2.333V894.779a3.553,3.553,0,1,0,7.106,0V285.572a2.337,2.337,0,0,0-2.335-2.333Z" transform="translate(81.208 348.397)" fill="#44464c"></path><path d="M80.842,900.318a5.545,5.545,0,0,1-5.539-5.539V285.572a4.322,4.322,0,0,1,4.319-4.316h2.438a4.322,4.322,0,0,1,4.318,4.316V894.779a5.545,5.545,0,0,1-5.536,5.539M79.621,283.24a2.337,2.337,0,0,0-2.335,2.333V894.779a3.554,3.554,0,1,0,7.108,0V285.572a2.337,2.337,0,0,0-2.335-2.333Z" transform="translate(93.279 348.397)" fill="#44464c"></path><path d="M90.587,900.318a5.545,5.545,0,0,1-5.539-5.539V285.572a4.322,4.322,0,0,1,4.318-4.316H91.8a4.321,4.321,0,0,1,4.316,4.316V894.779a5.543,5.543,0,0,1-5.534,5.539M89.366,283.24a2.337,2.337,0,0,0-2.335,2.333V894.779a3.554,3.554,0,1,0,7.108,0V285.572A2.337,2.337,0,0,0,91.8,283.24Z" transform="translate(105.351 348.397)" fill="#44464c"></path><path d="M100.33,900.318a5.545,5.545,0,0,1-5.536-5.539V285.572a4.322,4.322,0,0,1,4.318-4.316h2.438a4.323,4.323,0,0,1,4.316,4.316V894.779a5.543,5.543,0,0,1-5.536,5.539M99.112,283.24a2.338,2.338,0,0,0-2.337,2.333V894.779a3.554,3.554,0,1,0,7.108,0V285.572a2.337,2.337,0,0,0-2.333-2.333Z" transform="translate(117.423 348.397)" fill="#44464c"></path><path d="M110.075,900.318a5.543,5.543,0,0,1-5.536-5.539V285.572a4.321,4.321,0,0,1,4.316-4.316h2.438a4.322,4.322,0,0,1,4.318,4.316V894.779a5.545,5.545,0,0,1-5.536,5.539m-1.22-617.078a2.336,2.336,0,0,0-2.333,2.333V894.779a3.553,3.553,0,1,0,7.106,0V285.572a2.337,2.337,0,0,0-2.335-2.333Z" transform="translate(129.494 348.397)" fill="#44464c"></path><path d="M213.607,563.368H51.97a.992.992,0,1,1,0-1.984H213.607a.992.992,0,1,1,0,1.984" transform="translate(63.147 695.397)" fill="#44464c"></path><path d="M199.239,575.11H56.1a.992.992,0,1,1,0-1.983H199.239a.992.992,0,1,1,0,1.983" transform="translate(68.266 709.943)" fill="#44464c"></path><path d="M372.681,234.118H161.451a.992.992,0,0,1,0-1.984h211.23a.992.992,0,0,1,0,1.984" transform="translate(198.764 287.549)" fill="#44464c"></path><path d="M354.233,238.36H166.756a.991.991,0,1,1,0-1.981H354.233a.991.991,0,1,1,0,1.981" transform="translate(205.335 292.807)" fill="#44464c"></path><path d="M348.555,245.382H168.388a.992.992,0,1,1,0-1.984H348.555a.992.992,0,0,1,0,1.984" transform="translate(207.357 301.502)" fill="#44464c"></path><path d="M320.739,250.933H176.387a.992.992,0,1,1,0-1.984H320.739a.992.992,0,1,1,0,1.984" transform="translate(217.265 308.378)" fill="#44464c"></path><path d="M305.98,256.482H180.63a.992.992,0,0,1,0-1.983H305.98a.992.992,0,1,1,0,1.983" transform="translate(222.523 315.251)" fill="#44464c"></path><path d="M306.832,266.6H180.387a.992.992,0,0,1,0-1.984H306.832a.992.992,0,0,1,0,1.984" transform="translate(222.22 327.788)" fill="#44464c"></path><path d="M311.373,272.643H179.081a.992.992,0,0,1,0-1.984H311.373a.992.992,0,1,1,0,1.984" transform="translate(220.602 335.27)" fill="#44464c"></path><path d="M298.6,278.03H182.754a.992.992,0,0,1,0-1.984H298.6a.992.992,0,0,1,0,1.984" transform="translate(225.152 341.943)" fill="#44464c"></path><path d="M302.858,258.768H181.529a.992.992,0,0,1,0-1.984h121.33a.992.992,0,0,1,0,1.984" transform="translate(223.635 318.083)" fill="#44464c"></path><path d="M211.468,266.848a5.358,5.358,0,0,1-4.742-2.339.992.992,0,1,1,1.677-1.061c.927,1.466,2.778,1.493,3.8,1.372a.992.992,0,0,1,.224,1.972,8.888,8.888,0,0,1-.96.056" transform="translate(255.887 325.768)" fill="#44464c"></path><path d="M187.032,271.115H187a.93.93,0,0,1-.958-.913c0-.027.011-.206.013-.231a7.536,7.536,0,0,0-.146-3.022c-.309-.349-.806-.235-1.538-.038a3.167,3.167,0,0,1-4.419-2.1,3.829,3.829,0,0,1-.009-2.1c.62-2.342,3.154-4.589,5.812-4.079a.991.991,0,1,1-.372,1.948c-1.493-.271-3.143,1.207-3.519,2.628a1.9,1.9,0,0,0-.011,1.037,1.532,1.532,0,0,0,.743.918c.195.128.788-.038,1.265-.168a3.459,3.459,0,0,1,3.23.264,2.131,2.131,0,0,1,.681,1.014,9.467,9.467,0,0,1,.262,3.855,1.07,1.07,0,0,1-1,.989" transform="translate(222.719 320.279)" fill="#44464c"></path><path d="M189.553,269.578a1,1,0,0,1-.983-.86c-.226-1.679.793-2.969,1.692-4.108.71-.9,1.381-1.755,1.294-2.595a1.542,1.542,0,0,0-.748-1.316c-1.084-.642-3.28-.289-4.889.4a.993.993,0,0,1-.772-1.829c1.919-.808,4.815-1.37,6.671-.275a3.546,3.546,0,0,1,1.71,2.819c.172,1.643-.828,2.908-1.71,4.027-.75.949-1.4,1.771-1.283,2.617a.99.99,0,0,1-.848,1.115.927.927,0,0,1-.134.009" transform="translate(228.595 320.063)" fill="#44464c"></path><path d="M187.321,270.4c-.043,0-.087,0-.132-.007a3.457,3.457,0,0,1-2.778-2.315,8.337,8.337,0,0,1,1.045-7.339.99.99,0,0,1,1.534,1.254,6.506,6.506,0,0,0-.734,5.355c.383.969.994,1.05,1.2,1.077a.992.992,0,0,1-.13,1.974" transform="translate(227.905 322.531)" fill="#44464c"></path><path d="M194.768,267.482a.991.991,0,0,1-.976-.824c-.262-1.52-1.737-2.03-3.956-2.639l-.831-.233a.991.991,0,1,1,.562-1.9l.79.219c2.064.566,4.894,1.341,5.389,4.218a.993.993,0,0,1-.808,1.146,1.117,1.117,0,0,1-.17.013" transform="translate(233.246 324.353)" fill="#44464c"></path><path d="M197.374,268.368a.993.993,0,0,1-.922-.627,21.432,21.432,0,0,1-.925-3.345c-.36-1.639-.7-3.188-1.473-3.542-.405-.188-1.285-.2-3.15.815a.992.992,0,0,1-.947-1.744c2.129-1.155,3.692-1.442,4.923-.873,1.675.766,2.116,2.781,2.583,4.916a20.053,20.053,0,0,0,.833,3.042.992.992,0,0,1-.922,1.357" transform="translate(234.661 320.543)" fill="#44464c"></path><path d="M205.466,270.51a.992.992,0,0,1-.025-1.984c.936-.022,1.135-.233,1.137-.235.242-.815-2.843-4.144-5.118-5.776-2.2-1.574-3.974-2.113-4.621-1.393-.884.974-.383,3.808.943,5.319a1.842,1.842,0,0,0,2.734.434.991.991,0,0,1,1.128,1.63,3.8,3.8,0,0,1-5.355-.757c-1.847-2.113-2.653-6.049-.918-7.959,1.023-1.128,3.107-1.851,7.242,1.113.069.049,6.77,5.015,5.852,7.988-.318,1.034-1.321,1.578-2.977,1.619Z" transform="translate(240.822 320.592)" fill="#44464c"></path><path d="M209.4,271.966a.989.989,0,0,1-.737-1.654c.134-.146.233-.264.307-.36a4.625,4.625,0,0,1-1.379-.792,5,5,0,0,0-1.881-1.1,1.447,1.447,0,0,1-1.07-.909c-.188-.656.159-1.09.918-2.044.271-.338.62-.779,1.057-1.35.282-.372.56-.7.808-.994a4.388,4.388,0,0,0,.8-1.115c0-.013-.069-.345-1.386-1.182a4.454,4.454,0,0,0-3.434-.376,4.151,4.151,0,0,0-2.63,1.858.992.992,0,0,1-1.746-.94,6.068,6.068,0,0,1,3.875-2.836,6.384,6.384,0,0,1,5,.622c1.487.945,2.149,1.684,2.281,2.559.159,1.034-.49,1.8-1.242,2.693-.231.271-.486.571-.746.909-.448.589-.806,1.041-1.084,1.388l-.085.105a7.314,7.314,0,0,1,1.881,1.227,2.926,2.926,0,0,0,.824.446,1.955,1.955,0,0,1,1.39,1.283,2.679,2.679,0,0,1-.983,2.239.982.982,0,0,1-.737.327" transform="translate(246.39 319.502)" fill="#44464c"></path><path d="M213.9,265.38a2.531,2.531,0,0,1-1.807-.6,3.13,3.13,0,0,1-.705-2.514c.013-.788,0-1.283-.307-1.486-.925-.627-2.445.215-3.786.949-.39.215-.759.416-1.1.58a.992.992,0,0,1-.851-1.793c.307-.146.643-.329.994-.524,1.652-.911,3.922-2.156,5.848-.86a3.383,3.383,0,0,1,1.182,3.17,3.077,3.077,0,0,0,.078,1.032,1.425,1.425,0,0,0,.741.052c.4-.034.826-.849,1.2-1.563.638-1.222,1.433-2.745,3.163-2.937a3.4,3.4,0,0,1,3.087,1.187,2.506,2.506,0,0,1,.41,2.418.991.991,0,0,1-1.858-.69.536.536,0,0,0-.114-.506,1.4,1.4,0,0,0-1.305-.437c-.634.069-1.054.79-1.625,1.88-.609,1.169-1.3,2.494-2.783,2.624q-.242.02-.463.02" transform="translate(253.669 320.296)" fill="#44464c"></path><path d="M212.324,268.291a.993.993,0,0,1-.607-1.778c.114-.087.208-.166.287-.233a21.173,21.173,0,0,0-2.1-.322c-2.252-.275-4.583-.56-5.407-2a2.329,2.329,0,0,1-.025-2.174.991.991,0,1,1,1.818.79c-.029.069-.125.3-.072.4.329.578,2.669.862,3.924,1.016,2.187.264,3.77.459,4.108,1.7.313,1.137-.875,2.051-1.321,2.4a.991.991,0,0,1-.6.206" transform="translate(252.969 323.543)" fill="#44464c"></path><path d="M212.623,264.816a.8.8,0,0,1-.163-.013.99.99,0,0,1-.819-.833c-.074.132-.157.309-.266.544l-.945-.322-.848-.524c.47-1,1.052-2.225,3.119-2.006a.994.994,0,0,1,.853.763,3.991,3.991,0,0,1,.047,1.563.989.989,0,0,1-.976.828m-2.194-.625h0Z" transform="translate(259.612 324.093)" fill="#44464c"></path><path d="M217.171,269.912a3.615,3.615,0,0,1-2.745-.826c-1.059-1.2-.627-3.092-.206-4.594a.115.115,0,0,1-.034.013.99.99,0,1,1-.826-1.8,3.968,3.968,0,0,1,2.364-.41.991.991,0,0,1,.822,1.139,12.176,12.176,0,0,1-.311,1.227c-.264.916-.752,2.624-.325,3.105.6.416,3.71.047,4.283-.421.235-.293-.161-1.764-.4-2.639-.472-1.751-.96-3.562.128-4.728,1-1.066,2.709-.871,3.909-.636a.992.992,0,1,1-.385,1.945c-1.663-.329-2.035,0-2.073.045-.338.358.083,1.923.336,2.857.441,1.637.9,3.331-.016,4.448-.777.951-3.163,1.247-4.316,1.269-.072,0-.141,0-.208,0" transform="translate(263.578 321.024)" fill="#44464c"></path><path d="M217.856,267.484a.991.991,0,0,1-.524-1.834c1.48-.922,1.319-1.831,1.068-2.433a.991.991,0,1,1,1.831-.759c.781,1.88.105,3.656-1.851,4.876a1,1,0,0,1-.524.15" transform="translate(268.633 324.35)" fill="#44464c"></path><path d="M223.37,271.527a1.008,1.008,0,0,1-.45-.108.994.994,0,0,1-.432-1.337c.723-1.415.651-1.966.587-2.136-.125-.327-.746-.569-1.406-.826-1.2-.468-2.836-1.108-3.443-3.054a3.654,3.654,0,0,1,.215-2.955c.636-1.139,1.963-1.983,3.949-2.5a.99.99,0,1,1,.5,1.916,4.286,4.286,0,0,0-2.713,1.545,1.731,1.731,0,0,0-.056,1.4c.3.963,1.059,1.323,2.27,1.8a3.837,3.837,0,0,1,2.539,1.968c.36.949.146,2.138-.674,3.745a.992.992,0,0,1-.884.54" transform="translate(270.059 320.307)" fill="#44464c"></path><path d="M225.942,270.756a.99.99,0,0,1-.772-1.612,2.142,2.142,0,0,0,.66-1.6c-.157-.79-1.471-1.509-2.528-2.086-1.392-.761-2.707-1.484-2.642-2.825.06-1.256,1.33-2.277,4.527-3.647a.993.993,0,0,1,.781,1.827c-3,1.281-3.309,1.9-3.336,1.966.123.121,1.025.613,1.621.94,1.419.775,3.183,1.742,3.521,3.436a3.952,3.952,0,0,1-1.059,3.235,1,1,0,0,1-.775.367" transform="translate(273.334 320.711)" fill="#44464c"></path><path d="M227.355,271.265a.989.989,0,0,1-.938-.667c-1.115-3.246.535-4.207,1.858-4.979a4.542,4.542,0,0,0,1.9-1.652c.62-1.1.609-1.983-.034-2.635a3.718,3.718,0,0,0-4.135-.421.991.991,0,0,1-.951-1.74,5.689,5.689,0,0,1,6.5.766c1.283,1.3,1.41,3.128.347,5.006a6.394,6.394,0,0,1-2.624,2.391c-1.2.7-1.567.911-.981,2.619a.994.994,0,0,1-.616,1.26,1.076,1.076,0,0,1-.322.052" transform="translate(278.137 320.202)" fill="#44464c"></path><path d="M226.579,264.021a.993.993,0,0,1-.931-.645,1.917,1.917,0,0,0-1.473-1.2.991.991,0,1,1,.421-1.937,3.9,3.9,0,0,1,2.91,2.447.992.992,0,0,1-.58,1.276,1.006,1.006,0,0,1-.347.063" transform="translate(276.72 322.331)" fill="#44464c"></path><path d="M229.935,271.324a.992.992,0,0,1-.018-1.984c1.621-.029,1.907-.345,1.912-.349a6.247,6.247,0,0,0-.94-1.845,6.051,6.051,0,0,1-1.265-3.058c.056-2.476,1.659-2.924,2.946-3.284.132-.038.264-.074.4-.112l-.013,0a.992.992,0,1,1,.537-1.91,4.4,4.4,0,0,1,2.4,1.462.992.992,0,0,1,.188.772,1.009,1.009,0,0,1-.443.665,8.877,8.877,0,0,1-2.532,1.037c-1.267.354-1.475.441-1.5,1.422a5.664,5.664,0,0,0,.958,1.954c.817,1.294,1.661,2.635,1,3.857-.636,1.175-2.266,1.355-3.613,1.377Z" transform="translate(283.596 320.51)" fill="#44464c"></path><path d="M233.2,271.69a.944.944,0,0,1-.347-.065.99.99,0,0,1-.582-1.276,10.708,10.708,0,0,1,3.77-4.639c2.008-1.614,2.839-2.284.723-5.422a.991.991,0,0,1,1.643-1.108c3.136,4.65.873,6.47-1.122,8.077a8.771,8.771,0,0,0-3.157,3.79.993.993,0,0,1-.929.642" transform="translate(287.64 320.509)" fill="#44464c"></path><path d="M235.485,267.281a.992.992,0,0,1-.739-1.654,10.267,10.267,0,0,0,2.008-2.986.99.99,0,0,1,1.847.716,11.939,11.939,0,0,1-2.378,3.6.989.989,0,0,1-.739.329" transform="translate(290.471 324.553)" fill="#44464c"></path><path d="M233.035,265.6a1.007,1.007,0,0,1-.582-.188.99.99,0,0,1-.219-1.384c.772-1.07,1.531-2.335,1.289-3.622a.991.991,0,1,1,1.948-.369c.385,2.042-.669,3.826-1.632,5.154a.986.986,0,0,1-.8.41" transform="translate(287.438 321.116)" fill="#44464c"></path><path d="M191.651,900.318a5.543,5.543,0,0,1-5.536-5.539V285.572a4.321,4.321,0,0,1,4.316-4.316h2.44a4.321,4.321,0,0,1,4.316,4.316V894.779a5.545,5.545,0,0,1-5.536,5.539m-1.22-617.078a2.336,2.336,0,0,0-2.333,2.333V894.779a3.553,3.553,0,1,0,7.106,0V285.572a2.337,2.337,0,0,0-2.333-2.333Z" transform="translate(230.544 348.397)" fill="#44464c"></path><path d="M201.4,900.318a5.545,5.545,0,0,1-5.539-5.539V285.572a4.322,4.322,0,0,1,4.319-4.316h2.438a4.322,4.322,0,0,1,4.318,4.316V894.779a5.545,5.545,0,0,1-5.536,5.539m-1.22-617.078a2.337,2.337,0,0,0-2.335,2.333V894.779a3.554,3.554,0,1,0,7.108,0V285.572a2.337,2.337,0,0,0-2.335-2.333Z" transform="translate(242.614 348.397)" fill="#44464c"></path><path d="M211.144,900.318a5.545,5.545,0,0,1-5.539-5.539V285.572a4.322,4.322,0,0,1,4.319-4.316h2.438a4.322,4.322,0,0,1,4.318,4.316V894.779a5.545,5.545,0,0,1-5.536,5.539m-1.22-617.078a2.337,2.337,0,0,0-2.335,2.333V894.779a3.554,3.554,0,1,0,7.108,0V285.572a2.337,2.337,0,0,0-2.335-2.333Z" transform="translate(254.687 348.397)" fill="#44464c"></path><path d="M220.889,900.318a5.545,5.545,0,0,1-5.539-5.539V285.572a4.322,4.322,0,0,1,4.318-4.316h2.438a4.322,4.322,0,0,1,4.319,4.316V894.779a5.545,5.545,0,0,1-5.536,5.539m-1.22-617.078a2.337,2.337,0,0,0-2.335,2.333V894.779a3.554,3.554,0,1,0,7.108,0V285.572a2.337,2.337,0,0,0-2.335-2.333Z" transform="translate(266.758 348.397)" fill="#44464c"></path><path d="M230.635,900.318a5.545,5.545,0,0,1-5.539-5.539V285.572a4.32,4.32,0,0,1,4.319-4.316h2.436a4.323,4.323,0,0,1,4.318,4.316V894.779a5.544,5.544,0,0,1-5.534,5.539m-1.22-617.078a2.338,2.338,0,0,0-2.337,2.333V894.779a3.554,3.554,0,1,0,7.108,0V285.572a2.337,2.337,0,0,0-2.335-2.333Z" transform="translate(278.831 348.397)" fill="#44464c"></path><path d="M334.164,563.368H172.527a.992.992,0,0,1,0-1.984H334.164a.992.992,0,1,1,0,1.984" transform="translate(212.484 695.397)" fill="#44464c"></path><path d="M319.8,575.11H176.659a.992.992,0,1,1,0-1.983H319.8a.992.992,0,1,1,0,1.983" transform="translate(217.602 709.943)" fill="#44464c"></path><path d="M34.494,357.284c1.1-3.228,2.357-5.892,4.726-7.887a2.224,2.224,0,0,1,1.894-.638c1.773.143,3.02-1.585,3.64-2.819a20.094,20.094,0,0,1,9.515-9.159c4.614-2.3,9.031-5.174,14.129-6.141a12.909,12.909,0,0,0,6.763-3.428c.309-.291,1.037-.578.441-1.155-2.532-2.458.013-3.6,1.448-4.388,3.716-2.031,6.709-5.01,10.233-7.251,3.367-2.14,4.719-5.6,6-9a58.931,58.931,0,0,1,8.29-14.673,92.76,92.76,0,0,0,6.548-10.627c2.1-3.745,4.318-7.493,7.632-10.148,4.117-3.3,5.5-7.771,6.815-12.447.6-2.125,1.778-3.609,4.28-3.817,2.55-.213,3.949-2.4,5.718-3.9a7.148,7.148,0,0,1,3.689-1.8c4.627-.792,8.729-3.213,13.016-5.039a1.866,1.866,0,0,0,1.2-2.046c-.163-1.144-1.339-1.07-1.948-1.222-4.768-1.2-9.477-2.527-13.764-5.01a14.933,14.933,0,0,1-3.987-3.134c5.133,1.247,10.083,2.693,15.129,3.609a78.89,78.89,0,0,0,20.137,1.375c1.612-.123,4.265-.9,4.746,1,.383,1.509-2.263,1.565-3.654,2.142-7,2.908-14.171,5.44-20.65,9.49a4.517,4.517,0,0,0-1.636,1.5c-1.1,1.863-.813,2.523,1.366,2.577,8.138.2,16.146-.987,24.1-2.521a105.909,105.909,0,0,0,17.843-5.48A24.782,24.782,0,0,1,200,243.8c2.127.24,2.539-.477,1.549-2.442-2.172-4.319-6.051-6.177-10.511-7.2-2.59-.593-5.151-1.312-7.741-1.907-.916-.208-2.053-.356-2.046-1.392.007-1.408,1.478-1.706,2.438-1.6a50.443,50.443,0,0,1,7.115,1.372,60.44,60.44,0,0,1,18.776,8.447,43.208,43.208,0,0,1,12.369,13.233c2.866,4.592,5.518,9.318,8.444,13.869a23.489,23.489,0,0,0,8.3,8.285c2.236,1.225,3.882.369,3.584-2.1-.64-5.272.15-10.423.9-15.581.593-4.108,3.132-7.292,5.512-10.477,2.185-2.926,5.124-5.142,7.833-7.565.734-.658,1.95-1.547,2.624-.786.815.918.148,2.071-.808,3.047a25.523,25.523,0,0,0-7.417,20.941c.269,3.354.311,6.649,1.637,9.794.157.374.078.954.658.8a1.337,1.337,0,0,0,.819-.822,14.793,14.793,0,0,0,.2-2.279c.365-5.2.107-10.471,1.834-15.512a12.031,12.031,0,0,1,4.746-6.284c.347-.233,1.046-.969,1.516-.3.311.448.819.969.416,1.8-1.319,2.725-1.61,5.751-2.2,8.668-.5,2.478.2,5,.6,7.455a26.4,26.4,0,0,0,5.086,12.593c.64.8,1.534,1.82,2.4,1.542,1.086-.345,1.07-1.746,1.063-2.843-.02-2.928-.813-5.789-.591-8.758a33.014,33.014,0,0,1,4.231-14.258c1.363-2.371,2.331-4.965,3.658-7.361a10.633,10.633,0,0,1,11.292-5.333,3.484,3.484,0,0,1,2.684,2.393,54.312,54.312,0,0,1,3.262,14.583,86.592,86.592,0,0,1-.072,10.37c-.013.522-.372,1.251.488,1.484a1.468,1.468,0,0,0,1.686-.878c1.016-2.174,2.275-4.276,2.709-6.665,1.045-5.758,1.856-11.561,3.042-17.287a9.2,9.2,0,0,1,5.371-6.853c.967-.425,2.236-.551,2.832.179s.148,1.791-.569,2.7c-2.917,3.71-4,8.082-4.654,12.7-1.075,7.583-2.4,15.127-2.671,22.8-.038,1.086-.141,2.156,1.117,3.094,2.239-4.959,5.028-9.7,5.539-15.089.448-4.746,1.254-9.006,4.8-12.53,2.982-2.962,4.8-6.768,6.6-10.538.544-1.135,1-3,2.754-2.145,1.321.64.936,2.136.629,3.548-2.2,10.168-1.153,19.75,5.559,28.179a4.279,4.279,0,0,0,1.294,1.184c.855.432,1.527,1.914,2.442,1.321a3.653,3.653,0,0,0,1.254-3.611,42.376,42.376,0,0,1-.508-9.523c.262-3.365,1.328-6.533,2.042-9.788,1.054-4.807,2.089-9.6,4.887-13.775,3.548-5.29,8.306-9.358,13.379-13.094a1.342,1.342,0,0,1,1.849.034,2.036,2.036,0,0,1,.405,2.306,31.951,31.951,0,0,0-3.06,8.912,84.879,84.879,0,0,0-.891,14.95c.11,4.021.343,8.153,1.757,12.051a18.555,18.555,0,0,0,1.966,4.332c.79-.983.7-2.924,2.176-2.66,1.175.21.976,1.9,1.354,2.969.472,1.343-.049,2.684.537,4.4a24.718,24.718,0,0,0,3.076-8.151c1.366-6.633,2.969-13.15,6.721-18.922,2.087-3.21,4.3-6.349,6.255-9.635,2.545-4.263,4.068-8.852,3.609-13.925a3.256,3.256,0,0,1,.022-.51c.1-1.645-.146-3.49,1.265-4.643.826-.676,4.435,1.7,5.467,3.3,2.263,3.495,3.557,7.594,6.77,10.513a24.211,24.211,0,0,0,3.907,3.116c2.563,1.509,5.225.331,5.548-2.606a53.177,53.177,0,0,0-1.446-19.43c-.779-2.977-2.436-5.556-3.425-8.422-.262-.761-1.345-1.724-.009-2.337a2.188,2.188,0,0,1,2.928.763c2.454,3.862,5.109,7.641,6.45,12.071,1.538,5.08,2.9,10.213,4.3,15.333a4.175,4.175,0,0,0,1.863,2.951c.231-4.374.873-8.579.522-12.7-.244-2.852.016-5.686-.21-8.536a66.078,66.078,0,0,0-2.2-12.761c-.313-1.117-.7-2.3.416-2.96,1.095-.645,2.075-.049,3.132.788,4.639,3.68,7.016,9.25,11.285,13.231a7.262,7.262,0,0,0,3.734,1.945c-1.03-2.841-1.941-5.386-2.879-7.918-.378-1.016-.871-2.026.206-2.908,1.1-.9,2.084-.251,2.966.381,1.612,1.153,3.121,2.483,5.384,2.575a23.744,23.744,0,0,0-7.84-12.66c-5.277-4.712-12.212-5.814-18.373-8.594a26.863,26.863,0,0,0-3.526-1.213c-3.439-1.007-3.994-1.634-3.853-5.308.056-1.444-.925-2.272-1.386-3.4-.571-1.4-1.339-2.877,1.294-2.751,5.8.278,6.756-4.71,8.932-8.294,1.289-2.125,2.268-4.437,3.414-6.649.634-1.222,1.5-2.1,2.944-1.142,1.207.8,2.662,1.372,1.715,3.495-2.27,5.075-4.3,10.253-6.447,15.382-.448,1.066-.454,1.645.839,2.286,1.872.927,3.714,1.466,5.68.844a6.659,6.659,0,0,1,5.122.372c1.354.656,2.8.486,4.191.748a3.08,3.08,0,0,0,3.77-2.165c1.471-3.7,2.852-7.435,4.251-11.16a13.978,13.978,0,0,1,.69-2.127c.826-1.415.669-3.891,2.216-4.224a11.316,11.316,0,0,1,6.942.669c1.491.665,2.1,1.659,1.48,3.329-1.838,4.977-3.573,9.989-5.438,14.955a1.976,1.976,0,0,0-.049,1.834c.284.557.5,1.054,1.184,1.153.94.137.781-.625.974-1.142q2.613-6.992,5.257-13.974a23.851,23.851,0,0,0,.866-2.335c.562-2.178,1.643-2.962,3.985-2.183,2.557.853,2.442,2.519,1.773,4.419-1.531,4.336-3.224,8.615-4.489,13.045a7.462,7.462,0,0,0-.327,1.968c-.013.981.84,1.254,1.511,1.471.73.235.84-.535,1.11-1.025,1.31-2.366,1.451-5.084,2.292-7.594.954-2.841,2.176-5.557,3.392-8.285,1.054-2.369,3.107-2.733,5.071-2.042,4.088,1.439,8.281.669,12.407,1.061,3.28.311,3.772.846,2.812,3.987-1.068,3.49-2.219,6.953-3.3,10.441-.734,2.378-1.354,4.791-2.127,7.155-.3.936-.651,2.174-1.377,2.6-2.917,1.726-2.5,4.518-2.689,7.171-.687,9.582.667,19,2.16,28.418a50.718,50.718,0,0,1,.336,13.649c-.535,4.851-.969,9.7-1.847,14.509a85.527,85.527,0,0,1-3.412,13.02c-1.059,3.018-1.625,6.239-3.689,8.863-.36.459-.251,1.287-.441,2.442,1.73-1.025,3.217-1.289,4.571-2.617,1.628-1.6,4.33-1.357,6.557-1.905,8.292-2.039,16.853-2.8,25.042-5.411a20.955,20.955,0,0,1,11.037-.412c1.639.369,2.514,1.936,4.289,2.386a17,17,0,0,0,12.123-1.323c2.816-1.46,5.648-1.075,8.357-1.878,3.689-1.095,5.454,2.046,8.024,3.268a34.011,34.011,0,0,0,14.467,3.609c1.71.018,3.125.2,4.229,2.156.99,1.751,3.638,1.569,5.512,1.793,3.154.374,5.467,2.344,8.144,3.557,1.413.638,2.534,1.892,4.278,2,.607.038,1.549.385,1.724.831,1.688,4.328,6.649,7.437,4.892,13.058a22.686,22.686,0,0,0-.86,5.724,2.814,2.814,0,0,1-1.945,2.709c-1.256.248-1.234-1.3-1.648-2.14-.477-.976-.956-1.959-1.336-2.975a1.571,1.571,0,0,0-1.78-1.081c-.956.051-1.227.663-1.336,1.525a14.679,14.679,0,0,1-2.031,5.321,2.4,2.4,0,0,1-2.512,1.319c-.788-.264-.907-1.477-.775-2.438a9.343,9.343,0,0,0-.573-4.679,2.034,2.034,0,0,0-2.066-1.484,1.856,1.856,0,0,0-1.7,1.619c-.454,2.3-2.16,3.907-3.2,5.872-.721,1.359-1.8.837-2.626.634-1.231-.3-.316-1.122-.163-1.782.336-1.462.562-2.953.851-4.428a3.313,3.313,0,0,0-2.134-4.07,2.844,2.844,0,0,1-1.9-3.148c.3-1.319,1.91-1.5,3.195-1.274,2.23.394,3.692-.307,4.567-2.476.5-1.236,1.453-1.348,2.561-.445a9.531,9.531,0,0,0,3.089,2.046c.784.251,1.048-.105,1.475-.454.678-.551.349-1.048-.119-1.478-1.65-1.516-1.377-3.2-.62-5.044,1.068-2.6.282-3.817-2.424-3.98-1.867-.114-3.736-.275-5.606-.273-1.52,0-3.369-.083-2.163,2.445a3.157,3.157,0,0,1,.141.875c-2.895-.421-2.046,2.27-2.877,3.533-.6.909-1.066,1.153-1.988.461-1.2-.9-2.42-.819-3.92-.441a8.281,8.281,0,0,1-6.3-1.131,3.158,3.158,0,0,0-4.76,1.162c-1.249,2.084-3,1.883-4.549,1.1-4.562-2.3-9.694-2.272-14.431-2.711a35.779,35.779,0,0,0-16.392,2.315c-7.979,3.143-14.379,8.664-21.519,13.054a39.27,39.27,0,0,0-4.139,2.8c-.77.622-2.145,1.126-1.54,2.561.5,1.177,1.6,1.3,2.765,1.352,6.116.28,12.232.551,18.34.969a13.174,13.174,0,0,1,9.674,4.536c.925,1.113,2.2,2.666-.972,2.8,1.2,1.267,2.205,2.353,3.235,3.416,1.236,1.276,2.438,2.857,4.061.378.347-.533.81-.551,1.511-.21,3,1.453,5.073,5.966,4.233,9.123a46.19,46.19,0,0,0-1.068,6.022,2.377,2.377,0,0,1-1.254,1.787c-1.007.64-1.959,1.079-2.113-.813a9.508,9.508,0,0,0-.75-2.868c-.278-.651-.737-1.565-1.614-1.3a1.978,1.978,0,0,0-1.386,1.666,15.782,15.782,0,0,1-.714,3.154,2.277,2.277,0,0,1-1.934,1.681c-.562-.016-1.166-.875-1.095-1.793a1.78,1.78,0,0,0-.327-1.16c-.618-.775-1.169-1.744-2.425-1.534-1.233.208-1.509,1.263-1.753,2.2a11.9,11.9,0,0,0-.175,2.536c-.02.616-.119,1.5-.692,1.433-.6-.074-1.569.081-1.894-.844-1.388-3.949-5.026-6.069-7.86-8.554-2.519-2.21-6.168-4.074-10.175-2.595-3.291,1.211-6.5-.13-9.676-.663-3.522-.593-6.866-.871-10.408.193a20.653,20.653,0,0,1-8.386.922c-6.018-.8-11.606,1.077-17.339,2.017-5.892.965-11.7,2.926-17.605,3.19a75.221,75.221,0,0,1-19.468-1.334,137.079,137.079,0,0,0-14-2.648,17.678,17.678,0,0,0-9.743,1.641c-6.844,3.369-14.3,4.974-21.554,6.944-3.676,1-7.757,1.307-11.623,1.963-4.348.734-8.684.609-12.987,1.1a8.5,8.5,0,0,1-3.9-.448,11.935,11.935,0,0,0-6.136-.566c-3.349.7-6.515-1.213-9.853-1.641a122.9,122.9,0,0,1-13.869-3.089c-4.824-1.2-9.66-2.393-14.413-3.844-5.035-1.536-10.24-2.214-15.371-3.208-2.06-.4-3.425-2.053-5.673-2.078a26.611,26.611,0,0,1-8.881-2.022c-5.33-2.028-11.053-2.165-16.349-4.437-7.686-3.3-15.682-5.89-23.639-8.509-2.939-.967-5.926-.913-7.961,2.409-1.189,1.943-3.495,2.834-5.427,4.005-6.432,3.9-11.42,9.34-16.137,15.053a44.085,44.085,0,0,1-15.808,12.454c-7.424,3.405-13.927,8.487-20.86,12.788-2.8,1.735-6.076,2.313-8.944,3.8-5.935,3.085-12.761,3.754-18.613,6.951-4.464,2.436-8.868,4.892-13.842,6.224-3.434.918-7.092,1.146-10.28,2.834a29.494,29.494,0,0,0-9.873,7.8c-1.516,1.948-3.792,3.318-5.778,4.885a22.246,22.246,0,0,0-8.136,23.46,44.508,44.508,0,0,1,1.623,10.842c.063,8.288-8.9,11.01-14.292,9.817A17.116,17.116,0,0,1,54,425.489c-2.481-2.2-3.857-5.53-4.632-8.9-.047-.2.09-.62.231-.667,3.092-1.037,1.793-3.474,1.509-5.326a9.217,9.217,0,0,1,2.986-8.491c1.462-1.4,1.641-2.819.654-4.24-2.266-3.26-1.166-6.533-.166-9.721a5.577,5.577,0,0,1,4.03-3.535,14.716,14.716,0,0,0,7.728-5.2c3.143-3.781,6.9-7.03,9.407-11.373a34.036,34.036,0,0,0,3.933-8.545,10.142,10.142,0,0,1,3.772-5.747,10.976,10.976,0,0,0,1.323-1.2c.759-.817,1.422-1.945,1.115-2.89-.351-1.081-1.442-.011-2.176.011a30.931,30.931,0,0,0-17.8,6.441,132.21,132.21,0,0,1-19.75,12.235,9.5,9.5,0,0,0-4.03,3.683c-1.9,3.248-4.878,5.666-6.557,9.152-2.122,4.41-2.81,9.078-3.5,13.788-1.039,7.126-2.23,14.129-7.133,19.929-4.733,5.6-13.222,6.6-18.689,1.263-7.6-7.412-7.636-17.393-3.528-25.922.784-1.628,1.881-3,.828-5.021A1.9,1.9,0,0,1,4.748,382.5c3.918-.468,5.384-3.645,7.269-6.266,1.491-2.073,2.866-3.694,5.709-2.55a3.423,3.423,0,0,0,2.017.105c1.892-.488,2.317.667,2.55,2.091.116.705-.278,1.8.674,1.9.533.056,1.24-.777,1.744-1.325,3.537-3.844,5.675-8.655,8.8-12.8,1.084-1.439,2.413-2.754,3.018-4.554.575-1.706.394-2.608-2.031-1.818m86.719-60.9v-.013a22.257,22.257,0,0,0,4.829.2,76.554,76.554,0,0,0,30.583-12.116c4.605-3.159,8.935-6.862,14.232-8.751a87.634,87.634,0,0,0,18.319-9.535c3.7-2.409,7.515-4.766,9.875-8.756,1.025-1.735.732-3.228-1.039-3.41-1.639-.168-3.3-.557-5,.072-5.185,1.928-8.769,5.626-11.556,10.229-3.15,5.205-6.833,9.734-13.461,10.35-2.754.255-5.579-.034-8.285.43-11.364,1.943-22.376,5.06-32.546,10.67-3.783,2.089-7.538,4.229-11.288,6.38-.869.5-1.825,1.258-1.578,2.281a2.678,2.678,0,0,0,2.337,1.692c1.509.21,3.051.193,4.578.273M110.94,316.275a11.072,11.072,0,0,0-4.068.378,23.485,23.485,0,0,0-8.406,5.245c-6.266,6.056-13.455,10.862-20.52,15.843-.981.69-2.151,1.325-1.451,2.407.6.922,1.818.287,2.917-.13,7.124-2.7,12.982-7.766,20.115-10.5a41.585,41.585,0,0,0,13.058-8.256c1.254-1.14,2.118-2.342,1.607-3.918-.524-1.612-2.21-.75-3.253-1.075m269.365-62.1-.793-.45c-.609.7-1.269,1.363-1.813,2.111-1.41,1.934-3.667,3.6-3.692,6.085-.027,2.953-.477,5.906-.26,8.836.374,5.035.372,10.155,2.711,14.856,2.646,5.324,2.369,10.394-1.292,15.266-1.872,2.494-1.334,4.927.477,7.529,1.323,1.9,3.161,3.394,4.1,5.646.531,1.283,2.1,1.556,3.468.826,1.516-.81.833-1.646,0-2.561-.669-.732-1.1-1.679-1.76-2.427-2.763-3.157-4.162-6.725-2.973-10.885a41.516,41.516,0,0,0,.571-19.891c-1.218-6.056-1.724-12.089-.226-18.172.551-2.243,1-4.513,1.489-6.77m51.309,52.608a46.387,46.387,0,0,0-11.5-2.46c-7.871-.907-15.729-2.017-23.616-.584-3.275.6-6.575,1.5-9.226,3.663,1.435,1.2,2.984,1.1,4.486,1.133,6.25.137,12.51-.038,18.756.468,3.553.287,7.121.515,10.685.542s7.092-.372,10.412-2.76m-303.778-2.154c4.121,1.9,7.947.555,11.758-.125,5.42-.967,10.081-3.8,14.8-6.414a25.339,25.339,0,0,0,5.879-3.783c.6-.593,1.406-1.372,1.115-2.073-.338-.813-1.509-.484-2.292-.454a9.769,9.769,0,0,0-4.69,1.54c-5.6,3.409-11.762,5.389-17.905,7.482-2.917.994-6.219,1.251-8.668,3.828m350.758,2.966c-4.674-.826-8.85-2.579-13.385-2.353-2.078.105-4.079.911-6.183.694-3.275-.34-6.148,1.216-9.208,1.889-.833.184-1.025.732-.976,1.484.06.938.806.712,1.328.752,1.775.13,3.636-.1,5.315.358,5.254,1.428,10.5.593,15.72.13,2.46-.219,5.113-.683,7.39-2.955M214.239,248.462c-1.668,9.387,6.812,22.918,13.833,22.636a12.949,12.949,0,0,0-2.279-5.7,119.845,119.845,0,0,1-11.554-16.931m169.339-17.531c.123,3.817,1.943,6.5,3.871,9.241a50.617,50.617,0,0,1,6.47,14.178c.311.992,1.312,1.7,1.722,1.491a1.85,1.85,0,0,0,.681-2.328c-.947-3.078-1.422-6.3-2.413-9.365-1.793-5.541-4.153-10.75-10.329-13.217M486.118,272.3c6.486.573,12.291-1.782,18.127-3.846,5.919-2.093,11.717-1.842,17.7-.226,2.01.542,4.5,2,6.777-.231a34.237,34.237,0,0,0-8.648-1.263,20.809,20.809,0,0,1-4.063-.262c-9.5-1.995-18.586-.51-27.375,3.275-1.106.477-2.46,1.041-2.521,2.552m-75.066-35.208c-1.025.676-.486,1.2-.39,1.594,1.4,5.767,2.794,11.52,1.126,17.493a4.588,4.588,0,0,0-.078,2.274c.3,1.162.327,2.895,1.73,3.042,1.272.134,2.053-1.3,2.613-2.416,1.218-2.431,1.128-5.129,1.012-7.7a21.962,21.962,0,0,0-6.013-14.292M65.08,342.354c-5.9.206-10.007,3.2-13.388,7.491a2.664,2.664,0,0,0-.264,3.063c.721,1.126,1.675-.04,2.366-.347,4.892-2.183,8.635-6.19,13.423-8.565.99-.49.6-1.137-.179-1.339-.667-.172-1.372-.752-1.959-.3m279.3-82.519c2.037-2.292,3.038-4.71,2.36-7.943a14.6,14.6,0,0,1,.463-5.713c.546-2.642,2.254-5.171,1.37-8.187-5.639,4.607-7.6,15.093-4.193,21.843M495.9,308.4c-1.314-.195-3.15-.175-3.427,1.144-.255,1.213,1.7,1.392,2.765,1.892a8.417,8.417,0,0,0,1.628.573,16.714,16.714,0,0,1,9.64,5.72c1.021,1.265,2.57,2.019,3.763.609,1.173-1.386-.092-2.776-1.24-3.524-2.922-1.9-5.948-3.645-9.013-5.306A8.1,8.1,0,0,0,495.9,308.4M173.653,282.341a22.36,22.36,0,0,0,12.564-3.672,48.274,48.274,0,0,0,5.075-4.119c.466-.423,1.2-1.1.734-1.932-.537-.96-1.453-.226-2-.076A18.227,18.227,0,0,0,185.9,274.3c-4.088,2.319-8.447,4.251-12.25,8.044M316.909,262.81c-.51,3.642,1.384,6.257,3.754,8.635.472.477.743,1.556,1.733,1.07s.307-1.471.134-1.99a45.925,45.925,0,0,1-2.3-12.42,1.132,1.132,0,0,0-.522-1.068c-.459-.222-.728.246-1.043.492-1.748,1.375-1.643,3.365-1.753,5.281m233.131,6.745a41.494,41.494,0,0,0-12.5-4.408,5.944,5.944,0,0,0-3.244.1c-1.607.631-2.022,1.838-2.125,3.358-.063.889.179,2.138.752,2.187,1.254.107,1.813-1.171,2.543-2.087a3.782,3.782,0,0,1,4.285-1.236c2.216.685,4.377,1.556,6.55,2.375,1.2.452,2.373.853,3.734-.289M411.528,312.966a2.741,2.741,0,0,0,2.116,1.285c4.977.065,9.926,1.09,14.928.374,1.283-.184,3.472.06,3.255-1.276-.231-1.413-2.485-.837-3.835-.721-4.254.365-8.476,1.03-12.72-.233a3.629,3.629,0,0,0-3.743.571m-28.367-29.381c.757-5.364-.51-10.267-.589-15.205-.013-.768-.123-1.769-1.11-1.585-.62.116-.913,1.059-1.007,1.84a17.647,17.647,0,0,0,.253,6.5c.694,2.7.094,5.8,2.454,8.449M6.32,409.384c1.762.275,2.9-1.025,4.247-1.748.676-.365.629-1.153.078-1.73-.419-.437-.656-1.173-1.6-.741a9.635,9.635,0,0,0-3.528,2.248c-.358.412-1.173.631-.938,1.316.266.779,1.095.6,1.744.656" transform="translate(0 187.174)" fill="#44464c"></path><path d="M202.171,17.924c1.525-2.666,3.051-5.335,4.862-8.5A12.254,12.254,0,0,0,202.312,13c-.927,1.16-1.869,2.96-4.034,2.165-.555-.2-1.386-.175-.719-1.045,1.657-2.163,1.236-3.96-1.269-5.485,2.037-.866,3.508-2.086,5.5-1.039a1.747,1.747,0,0,0,1.869-.425,12.06,12.06,0,0,1,4.793-1.954c2.514-.587,4.059.8,3.4,3.26A8.357,8.357,0,0,0,211.316,12c3.19-.589,4.22-4.54,7.473-4.916,1.874,6.255-.627,11.3-4.079,16.125-1.019,1.424-2.528,2.185-3.869,3.177-.752.555-1.283,1.3-.922,2.165.488,1.164,1.359.078,1.919-.025,3.3-.6,6.237-1.69,8.167-4.923,1.225-2.051,3.75-1.726,5.836-1.178a11.1,11.1,0,0,0,5.438.114c1.654-.372,1.422-1.207.421-1.713-1.883-.951-1.236-1.773-.372-3.029a48.729,48.729,0,0,1,8.326-9.246,2.4,2.4,0,0,0,.925-2.465,3.25,3.25,0,0,0-2.628-2.1,9.579,9.579,0,0,0-2.794-.17,1.961,1.961,0,0,1-2.272-1.851c-.172-1.251,1.191-1.3,1.9-1.417a21.2,21.2,0,0,1,5.953-.466c6.051.734,11.843,2.96,18.055,3,2.664.018,4.321,2.483,4.549,6.521a3.347,3.347,0,0,0,2.4,3.4c5.089,1.668,5.261,6.915,3,10.849-1.354,2.357-.448,4.923.051,7.341.987,4.8,2.807,9.365,4.6,14.223-1.612-.387-2.845-1.46-4.936-1.565,1.793,2.957,3.242,5.612,4.968,8.075.808,1.151,2.44.1,3.8.737-.293.719-1.059,1.381.186,2.375,1.037.828.743,2.644-.266,3.869a4.74,4.74,0,0,1-1.516,1.348c-2.747,1.276-2.984,3.457-2.378,6.031.873,3.7-.472,6.906-2.418,9.9-.428.656-.86,1.218-.779,1.757-4.836-2.1-5.7,3.3-9.241,4.332,1.173.692,2.064.71,2.478,1.33-2.3,2.263-5.489,1.366-8.218,2.275A4.072,4.072,0,0,0,251.957,90c-.034,1.137-.1,1.589-1.254,1.451-.862-.1-1.034.763-1.081,1.14a1.394,1.394,0,0,0,.777,1.417c3.32,1.585,5.845,4.166,8.277,6.835a1.126,1.126,0,0,0,1.5.316c1.8-.781,2.96.177,4.025,1.469a21.015,21.015,0,0,0,2.4,2.642c1.4,1.193,2.828,2.906,4.755.672a.312.312,0,0,1,.233-.09c3.627.479,7.13-.873,10.864-.36,4.074.562,8.176.707,12.158,1.977,1.325.425,1.551-.351.766-1.581-1.478-2.308-2.633-4.827-4.162-7.1-.981-1.457-1.621-2.8-.942-4.511.121-.3.41-.6.04-.855-2.821-1.986-1.1-3.88.161-5.709.826-1.2,1.061-2.328-.058-3.369-.983-.916-1.254-1.587.018-2.507.721-.522,1.131-1.469,1.833-2.031,1.084-.862,1.442-1.5.468-2.836-1.529-2.089.6-3.257,1.786-4.8a4.571,4.571,0,0,0-3.624-.2c-.564.157-1.6,1.1-1.957.139s-1.1-2.093-.152-3.32a43.887,43.887,0,0,0,3-4.589,14.887,14.887,0,0,0,1.986-7.556c.02-2.158,1.572-4.2,3.188-4.126,2.4.116,3.1,1.654,2.861,3.83-.085.775-.121,1.71.844,1.82.748.083.9-.86,1.137-1.426.477-1.142.757-2.373,1.29-3.486.448-.931.8-2.046,2.324-1.889a2.584,2.584,0,0,1,2.333,1.952c.264.7.629,1.361.985,2.118,2.57-.96,2.4-3.978,4.121-5.588.461-.432.786-1.184,1.381-1.4,2.9-1.072,4.227-3.689,5.91-5.926,2.183-2.9,4.325-5.821,8.469-5.72,3.045.072,4.144,2.035,2.745,4.845a21.818,21.818,0,0,1-1.972,3.175,10.407,10.407,0,0,0-1.847,5.6c4.231.866,8.241-.716,12.338-1.323,6.98-1.037,14.01-1.816,20.885-3.479,1.959-.475,4.153-.542,5.328-2.671a.863.863,0,0,1,1.289-.365c3.618,2.268,7.383.546,11.019.2,5.783-.553,11.507-1.688,17.276-2.431a4.757,4.757,0,0,0,3.356-1.417c.958-1.16,2.16-.587,2.93-.2,1.131.566.018,1.493-.313,2.111a3.159,3.159,0,0,0,.3,3.884c1.16,1.67.71,4.039.788,6.1.047,1.175.289,1.558,1.5,1.719,2.055.269,4.018-.376,6.042-.3.952.034,1.144-.793,1.209-1.628a6.291,6.291,0,0,0-1.325-4.435c-1.386-1.8-1.4-3.282.519-4.724a3.166,3.166,0,0,0,.835-1.771c.6-2.74,2.8-3.705,5.5-2.44,3.98,1.863,4.932,5.586,5.919,9.338.81,3.078-.013,6.094-.647,8.982-.707,3.219-3.627,4.782-6.6,5.563-3.544.934-7.229,1-10.9,1.258-8.142.58-16.278.34-24.409.5-3.192.063-6.418.081-9.6.206-6.772.269-13.587-.363-20.319.848a5.154,5.154,0,0,1-1.016-.016c-7.108-.2-14.218-.369-21.324-.638a4.087,4.087,0,0,0-3.186,1.084c-2.259,2.026-4.627,3.931-6.976,5.856a2.788,2.788,0,0,0-.658,4.01c4.05,6.336,3.325,13.014,1.726,19.853-.627,2.686-1.066,5.527-.146,8.243,1.6,4.73,1.025,9.273-.318,13.974-.889,3.114-3.087,5.651-3.779,8.592-1.113,4.737-4.54,6.779-8.138,8.843a17.591,17.591,0,0,1-9.794,2.451,90.231,90.231,0,0,0-19.985,1.482,66.729,66.729,0,0,1-18.651.007c-2.969-.351-5.892-1.717-8.653-3.013-2.044-.96-1.887.128-1.954,1.422a10.388,10.388,0,0,0,.441,2.955c.73,3.058-2.427,5.324-1.35,8.391.342.181.416-.3.58-.488,2.57-2.913,2.577-2.928,5.442-.432,1.075.936,2.111,1.916,3.125,2.919.853.84,1.643,1.632.714,3.038a2.351,2.351,0,0,0,.219,2.411c1.538,2.5,1.088,4.56-1.422,6.221-.47.311-1.637.62-1.03,1.634.425.712,1.106.428,1.789.148a1.993,1.993,0,0,1,2.427.831c.748.9-.166,1.384-.4,2-.405,1.092-1.542,1.773-1.816,3.116a16.683,16.683,0,0,1,4.209-.275c1.88.246,2.026,1.283,1.245,2.655-.763,1.332-2.181,2.216-2.834,3.931,1.216-.322,2.223-.654,3.257-.846.826-.154,1.8-1.043,2.494.119a2.488,2.488,0,0,1-.15,2.637c-.289.495-.51,1.03-.766,1.556,3.967,1.063,3.967,1.063,2,5.471a5.622,5.622,0,0,0,2.008.06c.951-.338,1.849-.625,2.521.284.743,1.007.009,1.93-.49,2.78-.365.625-1.345,1.092-.839,1.921.484.786,1.175-.159,1.827-.132,1.829.078,3.568.054,3.011,2.729-.195.94,0,1.469,1.218,1.659a8.066,8.066,0,0,1,6.913,8.688,5.068,5.068,0,0,1-.045.763c-.405,1.932.967,4.016.262,5.6-.678,1.52-3.354,1-4.99,2.624,2.254.58,4.267,1.162,6.313,1.594a1.544,1.544,0,0,1,1.413,1.731c.049,1.14-.618,1.249-1.457,1.574-.7.271-2.048-.078-2.037,1.007.011.967,1.4,1.088,2.031,1.151,6.743.674,8.026,6.109,9.8,11.084a1.76,1.76,0,0,1-.569,2.084c-1.614,1.117-1.807,2.986-2.219,4.632-.463,1.858.835,3.051,1.849,4.554.907,1.341.461,3.9.013,5.778-.575,2.418-.412,5.194-2.886,6.958-1.9,1.354-3.633,1.272-4.813-.761a7.142,7.142,0,0,1-1-4.833c.09-.553.508-1.417-.484-1.708a2.1,2.1,0,0,0-1.869.47c-1.78,1.229-3.607,2.4-5.487,3.474-.835.477-1.827,1.075-2.834.385-1.072-.737-.5-1.872-.5-2.834,0-1.077,1.007-1.988.51-3.251-1.887.251-2.971,2.142-4.892,2.51-1.775.338-2.827.121-3.237-1.851-.349-1.69-.775-3.248-3.336-2.25-1.569.609-3.21-.806-4.177-1.847-.84-.9-.658-2.778.293-3.967.748-.931.582-1.491.016-2.429a34.92,34.92,0,0,1-2.091-4.549,5.033,5.033,0,0,1,2.069-6.512,3.338,3.338,0,0,0,1.981-3.4c.116-4.312,2.586-7.556,4.988-10.842,1.511-2.066,3.96-3.345,4.724-6.062.636-2.259-2.057-6.638-4.41-6.8-1.155-.081-2.922,2.633-2.716,4.227.051.4.4.81.351,1.175-.188,1.278.613,3.132-.929,3.669-1.587.553-1.612-1.451-2.31-2.342-2.566-3.269-5.843-5.827-8.861-8.615a37.866,37.866,0,0,1-7.661-9.857c-.591-1.081-1.122-2.055-2.6-2.326a33.414,33.414,0,0,0,.6,8.883c.77,5.133-.687,9.826-2.075,14.514a51.3,51.3,0,0,1-13.632,22.649c-.9.871-1.681,1.867-2.554,2.769-1.578,1.63-1.943,2.975-.412,5.189,3.3,4.78,4.871,10.419,6.027,16.027,1.093,5.292,2.6,10.471,3.739,15.743a36.057,36.057,0,0,1-1.182,19.806A67.473,67.473,0,0,0,227,303.209c-.405,4.072-1.072,8.075-3.528,11.8-6.206,9.4-10.576,19.884-16.481,29.471a144.343,144.343,0,0,1-13.755,18.7c-2.066,2.389-3.445,5.409-4.932,8.25-1.191,2.272-2.057,4.715-3.1,7.068-.757,1.706-.929,3.1,1.088,4.2,6.553,3.6,9.241,9.987,11.749,16.52,1.5,3.893,4.052,6.857,8.2,8.144,2.906.9,4.565,3.161,4.348,5.928-.154,1.97-1.081,2.543-2.993,1.858a9.857,9.857,0,0,0-3.909-.8,13.785,13.785,0,0,1-8.274-2.485,10.426,10.426,0,0,0-7.327-1.753c.172,2.145,2.1,3.654,2.411,6.076-3.967-.134-7.681-1.242-9.517-4.583-2.438-4.444-5.433-8.583-7.433-13.267-.414-.972-.819-1.945-1.234-2.917-3.638,2.156-4.211,2.008-6.4-1.988a32.435,32.435,0,0,1-1.8-4.133c-.443-1.169-.925-1.907-2.351-1.184-2.125,1.075-2.783-.4-2.816-2.024-.067-3.255.506-6.5-.477-9.763-.356-1.187-.6-3.107,1.675-3.459.275-.043.553-.62.681-1,1.842-5.527,5.21-10.383,6.971-15.949.862-2.729.43-5.545.768-8.306.094-.759.081-1.529.132-2.292.081-1.229-.076-2.563,1.325-3.257,1.5-.741,1.5,1.31,2.736,1.392.681-4.021,2.306-7.9,1.339-12.185-.421-1.865,1.612-1.948,2.725-2.36,1.587-.591,1.972-1.173,1.09-2.74-1.408-2.5-1.542-4.493,1.316-6.394,2.4-1.6,1.563-4.605,2.328-6.922.5-1.509.833-3.011,1.48-4.52.716-1.663-.925-3.43-2.082-4.712-.768-.848-2.1-.461-3.152.484-2.344,2.111-4.885,4.007-7.206,6.143a9.1,9.1,0,0,0-1.558,2.794c-3.622,7.45-10.117,11.035-17.531,13.894-6.826,2.633-12.123-.519-17.728-3.188-.526-.251-.983-.824-1.507-.873-6.177-.575-11.176-4.09-16.582-6.58-5.01-2.308-10.477-3.145-15.658-4.909-2.136-.725-3.886-2.174-6.1-2.76-3.43-.907-4.524-.537-6.407,2.485-3.067,4.921-7.347,8.742-11.688,12.472a9.913,9.913,0,0,0-3.38,5.4c-.853,3.548-3.188,5.957-6.306,7.737a1.829,1.829,0,0,1-2.807-.62c-.925-1.551-2.2-3.029-1.7-5.089.1-.4.163-1.153.007-1.222-3.016-1.368-2.259-5.042-4.419-7.045a5.338,5.338,0,0,1-1.307-6.794c.3-.551.692-1.175.425-1.654-2.225-4.036.833-6.884,2.854-9.217,1.406-1.625,3.665-4.034,6.844-3.2a5.117,5.117,0,0,0,2.713-.237c1.16-.336,1.695-.457,1.316-1.963-.766-3.047,1.29-4.854,3.477-6.439,1.281-.927,2.648-1.735,3.929-2.662,1.838-1.33,3.32-2.8,1.361-5.156a.832.832,0,0,1-.195-.62c.363-1.415,5.1-4.256,6.5-3.8,1.1.356,2.165.882,1.563,2.478a11.208,11.208,0,0,0-.17,2.648c3.47-3.051,7.623-3.64,11.032-5.818,2.048-1.31,4.3-.716,6.481-.363.2.031.5.251.531.419.562,3.584,3.748,3.123,6.083,3.958a11.323,11.323,0,0,1,1.448.363c2.38,1.24,4.473,2.7,7.339.4,1.61-1.292,1.995,1.247,2.046,2.133.168,2.785,1.059,2.322,2.492.835.705-.732,1.686-1.61,2.563-1.151a2.6,2.6,0,0,1,1.028,3.116c-.472,1.764.284,2.111,1.71,1.363,2.16-1.133,3.233-.73,3.394,1.876.1,1.61.672,2.881,2.9,2.677,1.542-.143,2.59,1.37,3.743,2.295a4.209,4.209,0,0,0,2.082,1.225c.432-3.2-.141-6.336-.24-9.461-.13-4.124-.6-8.254-.02-12.362.157-1.09,1.2-2.035,1.469-3.134.448-1.813,1.534-3.6.562-5.6a1.3,1.3,0,0,1,.21-1.175c3.781-3.658,5.073-8.751,7.621-13.114.21-.36.452-.707.627-1.086,1.119-2.436,2.937-2.082,5.015-1.169a6.108,6.108,0,0,1,1.811-5.019c.983-.864.528-1.686.139-2.492-1.639-3.389-2.736-6.835-2.087-10.708a3.68,3.68,0,0,0-1.388-2.772,13.39,13.39,0,0,0-1.079,3.036c-.681,3.6-2.563,4.354-6.009,2.946-9.591-3.918-13.8-11.816-15.949-21.245a55.422,55.422,0,0,1-.721-6.445c-.159-1.509.271-2.545,1.934-2.946a11.617,11.617,0,0,0,2.447-1.242c1.29,2.592,1.462,5.409,1.979,8.131.175.918.3,1.76,1.426,1.681s1.189-1.007,1.209-1.881a34.316,34.316,0,0,1,1.545-9.9c.316-.981.627-1.8,2-1.773,1.336.02,1.334-1.545,2.147-2.38,2.595,1.395,3.271,4.122,4.216,6.535,4.153,10.609,8.174,21.27,12.239,31.911,1.99,5.207,3.96,10.421,5.971,15.622.557,1.446.723,2.783-.636,3.873-.618.495-.591.929-.387,1.715a12.7,12.7,0,0,0,5,7.549c1.16.824,1.249.083,1.417-.737a29.623,29.623,0,0,0-.457-14.583c-3.351-11.641-5.5-23.587-8.138-35.41-1.842-8.259-3.6-16.533-5.353-24.812-.246-1.173-.817-.94-1.607-.71-4.068,1.184-7.33,3.864-10.963,5.848-.437.24-.951.781-1.285.685-2.765-.8-2.895,1.14-3.307,2.951-.188.831-.28,1.945-1.63,1.858a3.134,3.134,0,0,1-2.541-1.413c-1.952-2.96-1.764-4.934.1-8.1.86-1.455,1.415-2.541,3.425-2.3.9.105,1.84-.6,2.25-1.95.889-2.924-.788-7.021-3.58-7.827-1.513-.439-3.054-.8-4.589-1.153-.557-.13-1-.45-1.03-.956-.038-.694.506-1.023,1.169-1.041.754-.018,1.569-.32,2.205-.269,2.655.215,2.536-1.086,1.847-2.875-1.337-3.463-1.858-7.211-3.6-10.526a3.227,3.227,0,0,1,3.658,1.417c.658.938,1.545,1.834,2.738,1.131,1.225-.721.891-1.753.154-2.81a1.947,1.947,0,0,1,.665-2.861c1.426-.739,2.351.725,3.094,1.6a11.217,11.217,0,0,1,1.4,3.186c.336.848.369,2.026.976,2.516,2.919,2.369,3.047,6.038,4.361,9.109.963,2.254,2.082,3.423,4.565,3.06a10.869,10.869,0,0,1,1.939.083,104.886,104.886,0,0,0-4.753-12.219c-1.368-3.188-1.977-6.772-4.569-9.367-.795-.8.038-1.312.311-1.932.3-.681.587-1.227,1.453-.526a1.476,1.476,0,0,0,1.222.188c3.893-1.422,5.872,1.18,7.992,3.654,1.968,2.295,2.344,2.207,3.9-.392a3.889,3.889,0,0,1,1.034-1.39c3.089-1.872,2.454-4.54,1.728-7.307a87.436,87.436,0,0,1-2.545-15.673c-.074-1-.66-1.023-1.1-1.2a22.916,22.916,0,0,0-4.018-1.242,1.915,1.915,0,0,1-1.666-1.623c-.3-1.216,1.014-.817,1.361-1.37.412-.663,1.493-.437,1.748-1.352-.9-.768-1.719.228-2.534.1-1.681-.266-3.506.461-5.012-1.108-1.567-1.632-3.56-1.1-4.753.347-1.775,2.151-3.893,2.272-6.282,2-1.236-.141-2.384-.271-2.29,1.616.054,1.092-1.081.956-1.489.665-4.408-3.172-8.241.036-12.141,1.209-1.979.6-3.416.768-5.044-.578-2.36-1.95-4.267-2.051-6.974-.4a9.264,9.264,0,0,1-5.48,1.379,4.789,4.789,0,0,1-3.774-1.569c-1.486-1.672-3.083-2.216-5.722-1.269-4.081,1.464-8.409,2.892-13.217,2.044,1.979-1.849,4.605-2.369,6.506-4.238-.618-.663-1.294-.454-2.138-.26-2.738.636-5.295,2.017-8.171,2.069a6.309,6.309,0,0,1-3.893-1.146,1.611,1.611,0,0,1-.4-2.073c.3-.81.9-.356,1.46-.273a13.068,13.068,0,0,0,7.079-1.07,387.231,387.231,0,0,0,43.756-21.436c6.349-3.638,13.618-5.265,20.9-6.349.584-.087,1.128-.282,1.684-.367,1.034-.157,2.283-.116,2.9.73.535.739-.369,1.491-.9,2.1-.351.4-.71.723-.264,1.29.36.459.714.24,1.086.078,3.45-1.491,6.736-.963,10.4-.237a70.438,70.438,0,0,1,12.219,3.416c2.644,1.041,2.653,1.088.665,2.9-1.005.913-2.01,1.827-3,2.76-.1.09-.065.311-.123.645a4.464,4.464,0,0,0,4.39-.645c5.366-3.647,11.238-5.449,17.775-4.61a9.037,9.037,0,0,0,3.676-.613,2.529,2.529,0,0,1,2.8.513,2.361,2.361,0,0,1,.354,2.823c-2.628,5.915-4.471,12.174-7.762,17.8-2.778,4.744-7.58,6.9-12.161,9.268a3.569,3.569,0,0,1-3.213-.242c-2.957-1.733-5.975-1.531-9.076-.519,2.324,7.41,3.105,15.114,4.464,22.716,1.41,7.887-1.117,15.36-1.97,23.247a4.945,4.945,0,0,0,3.685-3.9,12,12,0,0,1,4.652-7.383,4.287,4.287,0,0,0,1.525-2.528c.654-5.362,3.123-10.2,5.906-14.431,4.074-6.192,5.621-13.325,9.013-19.714,2.3-4.332,4.768-8.588,6.938-12.962,2.268-4.574,4.56-9.049,7.887-12.924,2.774-3.233,5.5-6.539,8.561-9.485,2.051-1.972.428-3.383-.029-5.062-.553-2.037-1.95-.768-2.832-.58-.761.163-1.612.463-2.2.143-2.378-1.31-4.03-.481-5.982,1.126-3.166,2.608-6.763,3.589-10.865,1.681a68.042,68.042,0,0,0-11.478-4.1c-2.51-.658-4.007,0-5.026,2.364-.329.763-.737,1.493-1.124,2.23-.846,1.614-1.03,3.02.6,4.415.754.645,2.019,1.8,1.157,2.854-.84,1.03-2.286.6-3.454-.074-3.528-2.022-6.533-4.831-10.4-6.385-5.583-2.243-11.29-2.669-17.236-2.487-4.995.15-9.7,1.33-14.482,2.467a35.879,35.879,0,0,0-11.735,4.921c-2.9,1.93-5.362,3.394-9.4,2.416-4.82-1.169-9.185-4.39-14.473-3.575-4.974-2.986-10.455-2.554-15.9-2.324a4.789,4.789,0,0,1-4.126-1.4c-1.294-1.529-3.4-.627-4.813-1.878-.873-.775-2.348-1.392-2.158-2.51.2-1.184,1.563-1.84,2.917-2,3.378-.392,6.752-.817,10.132-1.2.2-.022.589.157.611.291.47,2.745,2.281,1.688,3.9,1.471,4.912-.658,9.3-3.293,14.1-4.021,7.209-1.09,13.15-5.456,20.086-7.061,6.116-1.419,11.859-4.406,18.38-4.191,2.4.081,4.283,1.314,6.369,2.082,1.092.4,2.375.878,3.078.181.746-.739-.343-1.827-.7-2.731-.692-1.762-2.389-2.2-3.927-2.841-.844-.354-1.76-.7-1.41-1.966.3-1.1,1.131-1.11,2.01-1.025,5.742.544,11.362,1.518,16.5,4.363a7.622,7.622,0,0,1,1.854,1.686c2.805,3.011,5.286,6.309,8.227,9.21.974.963,1.578.822,2.109-.076a16.128,16.128,0,0,0,1.872-4.052c.363-1.4.242-2.615-1.838-3.1-1.995-.463-3.754-1.742-3.333-4.455.4-2.57.154-5.189.869-7.775.618-2.241-.665-4.426-1.343-6.524-.526-1.63-.625-3.468-1.76-4.892-.307-.385-.231-.712.043-1.126a7.627,7.627,0,0,0,.533-1.392c1.845-4.652,4.536-9.1,2.1-14.476-1.274-2.819.287-5.552,1.518-8.053,1.717-3.486,3.79-6.772,5.185-10.448a8.392,8.392,0,0,1,6.186-5.368c1.451-.345,1.724.13,1.511,1.3-.528,2.917-.92,5.8-3.736,7.773-1.314.92-2.738,2.557-1.151,4.739,3.633-3.492,7.392-6.7,12.358-8-.226,4.585-3.432,7.039-6.745,9.4-1.634,1.166-3.515,2.384-5.436,2.01a4.866,4.866,0,0,0-5.386,2.031,5.274,5.274,0,0,0-.412,6.371c1.137-1.218,1.361-2.836,2.051-4.222.477-.954.992-2,2.357-1.959,1.234.036,1.7.889,2.093,1.872a15.153,15.153,0,0,0,.775,1.415,10.255,10.255,0,0,1,3.922-4.168,15.8,15.8,0,0,0,6.66-7.862c.246-.656.423-2.219,2.051-1.377,1.372.71.553,1.531.484,2.487-.168,2.308-2.044,4.339-1.225,7.157,2.268-1.8,3.248-4.162,4.7-6.13,1.863-2.534,4.815-3.994,6.423-6.7.757-1.274,2.579-2.7,1.209-4.184-1.464-1.594-3.027.206-4.471.833-2.957,1.285-5.709,3.159-9.123,3.094m-1.827,156c3.152.562,3.127.551,1.71,3.289-.584,1.133-1.715,2.324.443,3.291a2.086,2.086,0,0,1,.4,2.635c-.318.5-.457,1.426.02,1.641,2.1.956,1.625,2.7,1.569,4.357-.013.4-.1.873.481,1,2.353.528,4.193,2.129,6.6,3.448-.289-3.141-.891-5.937.461-8.516,1.187-2.263,2.545-4.462-1.625-5.288,1.3-1.258,2.319-2.239,3.5-3.376-1.189-.8-3.148-.826-2.915-2.53.188-1.366,2.037-1.052,2.87-1.9-.508-1.482-2.355-1.469-3.316-3.011a18.667,18.667,0,0,0,2.245-1.688c.833-.835,1.046-1.668-.591-1.742-.71-.034-1.294-.078-1.473-.985-.21-1.066.636-1.227,1.222-1.563.882-.506,2.028-.629,2.46-1.731-1.1-.687-2.149-1.337-3.665-2.281,1.086-.784,1.934-1.352,2.731-1.988.412-.329.748-.548.457-1.388-1.115-3.215-2.3-6.452-2.071-9.965.045-.7.345-1.578-.931-1.632-1.26-.054-.9.873-1.122,1.538-.942,2.892-1.37,6.071-4.256,7.941-.392.253-1.032.7-.672,1.2,1.894,2.644-.273,3.443-1.932,4.558-.777.526-1.719,1.352-.309,2.078,2.019,1.037.99,2.156.251,3.228a12.585,12.585,0,0,1-2.149,2.433c-.913.779-.278,1.2.307,1.307,1.928.367,1.442,1.328.8,2.489-.562,1.012-1,2.091-1.5,3.148m-11.879,21.328c-1.321,2.51-.963,5.335-1,8.037a3.329,3.329,0,0,1-1.395,3.132c-.931.64-1.357,1.487-.2,2.156,1.753,1.016.871,1.681-.107,2.5a8.314,8.314,0,0,1-1.874,1.242c-.387.177-.9.73-.857,1.057.087.761.754.226,1.164.318,1.375.309,2.028,1.1,1.234,2.521a4.61,4.61,0,0,1-2.089,2.051c-1.175.573-2.3,1.321.045,2.252,2.4.954,2.581,2.622.833,4.522a5.148,5.148,0,0,1-1.359,1.131c-.528.271-1.218.4-1.24,1.077-.027.884.947.674,1.354.761,1.863.4,2.221,1.525,1.923,3.172-.669,3.689-1.294,7.388-1.963,11.075-.114.636-.566,1.44.146,1.773s1.153-.522,1.578-1c2.767-3.078,3.466-7.491,6.627-10.332a1.026,1.026,0,0,0,.152-.956c-1.211-2.275.4-3.378,1.809-4.616.481-.425,1.238-.658.508-1.737-1.921-2.841-1.816-2.888,1.041-5.015.92-.687,1.983-1.184.125-2.391-2.326-1.509-2.286-2.812-.233-4.708,1.092-1.01.855-1.384-.2-2.205-.685-.535-2.06-1.117-1.285-2.57a2.851,2.851,0,0,0-.264-3.161,4.955,4.955,0,0,1-.855-3.569c.676-3.228-.647-5.288-3.624-6.519M149.35,286.636c.15,1.728,1.74,2.12,2.378,3.239.36.636,1.334,1.757.181,1.988-3.289.658-.99,2.241-.651,3.342.246.81.233,2.373,1.7,1.961,1.334-.374,2.969-1.034,3-2.666.052-2.4,1.372-4.285,2.4-6.152.873-1.585,1.415-2.36-.143-3.806a1.784,1.784,0,0,1,1.077-3.23c1.932,0,2.028-.54,1.328-2.178-.75-1.751.224-2.89,2.01-3.277.784-.17,2.008.443,2.266-.542.275-1.052-1.166-1.207-1.784-1.809-1.7-1.663-1.69-2.577.233-3.978.6-.434,1.923-1.122,1.372-1.7-1.525-1.61-2.2-4.242-4.547-4.786a22.131,22.131,0,0,1-4.265-1.39c.257,1.928,1.7,3.242,1.589,5.075-.107,1.755-.69,2.642-2.516,1.567a3.733,3.733,0,0,0-2.975-.544c.47,1.9,2.116,3.145,2.778,4.943a2.1,2.1,0,0,1-.354,2.516c-.846.882-1.563.573-2.463.09-.743-.4-1.375-1.211-2.53-1.005a4.753,4.753,0,0,0,2.194,3.195c2.187,1.531,2.266,2.59.385,4.184a1.812,1.812,0,0,0-.468,2.57c.374.792,1.3,1.688.589,2.483-.622.694-1.715.148-2.789-.085M117.023,300.48a11.835,11.835,0,0,0,5.317-.66c.94-.311,1.8-1.034,1.131-1.773-1.332-1.466-1.1-5.176-4.771-3.645-.631.262-1.137-.318-1.446-.817-.844-1.366-2.158-1.469-3.542-1.428a8.369,8.369,0,0,1-1.4.116c-.842-2.646-2.364-1.834-4.542-1.858-1.925-.025-4.256.316-6.306-.412a1.855,1.855,0,0,0-2.185.911c-.56.808-1.444,1.86-.737,2.733.972,1.2.844,3.448,3.1,3.486,2,.036,3.548,2,5.973.985,1.057-.441,2.709,1.97,4.37.13.291-.32.972.159,1.245.616.92,1.545,2.382,1.722,3.792,1.616m137.289-186.9c1.3-.347,3.139-.8,4.952-1.345a1.521,1.521,0,0,0,.918-2.369,7,7,0,0,0-1.88-2.886c-3.763-2.447-7.659-4.639-12.3-5.1a5.64,5.64,0,0,0-4.874,2.078c-.349.36-.9.853-.206,1.191,1.849.9,2.366,2.472,2.839,4.31a3.108,3.108,0,0,0,2.653,2.1c2.451.143,5.089-.647,6.826,1.95.056.085.325.029,1.07.067M268.681,221.4c.094-1.775.132-3.557.3-5.326.112-1.169-.2-1.757-1.466-1.69a4.435,4.435,0,0,1-1.744-.215c-1.207-.45-2.812-1.173-3.195.441-.414,1.744-1.2,3.886.289,5.543,1.072,1.2,1.184,1.778-.425,2.064-1.728.309-2.23,1.151-2.118,2.7.13,1.8.425,3.452,2.337,4.334a1.079,1.079,0,0,0,1.328-.26c.452-.354.8-1.046,1.455-.878,3.28.848,3.045-1.372,3.076-3.419.018-1.1.11-2.2.166-3.3M150.458,78.92c.072-.893-.463-1.068-.965-.9a4.385,4.385,0,0,0-1.954,1.05c-1.446,1.713-2.83,1.341-4.424.253a8.2,8.2,0,0,0-3.1-1.433c-4.435-.9-6.291,3-9.32,4.67-.49.269-1.332.759-.575,1.587.786.857,1.238.495,1.954-.318,1.283-1.455,3.235-1.26,4.981-1.361,1.33-.076,1.119,1.182,1.422,1.977.078.2.338.544.4.522,1.78-.705,4.173-.009,5.335-2.024a2.62,2.62,0,0,1,2.566-1.672,3.769,3.769,0,0,0,3.68-2.348m50.248,219.643c-3.528,4.695-5.218,9.622-4.305,15.281.083.522-.381,1.238.45,1.509a1.937,1.937,0,0,0,2.055-.587c3.727-3.555,4.737-11.585,1.8-16.2m42.37-241.549.04-.759c.083-1.549-.39-3.049-1.854-3.506-1.549-.481-2.174,1-2.872,2.163-1.968,3.273-2.026,7.137-3.383,10.6-.172.439-.405,1.249.338,1.542a1.588,1.588,0,0,0,1.672-.179c3.17-2.583,6-5.368,6.058-9.859m97.653-2.384c.378-1.6.168-2.767-1.849-2.485-2.532.356-5.057.759-7.587,1.135-2.071.309-2.785,1.957-3.351,3.6-.349,1-.284,2.022,1.348,1.925,2.418-.139,4.907.172,7.244-.3,1.941-.394,4.538-.772,4.2-3.869m20.117-5.942c-3.063.842-6.121.936-8.979,2.039-1.263.488-2.082,1.274-1.751,2.644.28,1.153,1.016,1.715,2.364,2.151,2.642.853,5.006-.423,7.506-.293,1.039.054,1.742-1.07,1.068-1.69-1.717-1.581-.831-3.069-.208-4.851M182.51,198.8c-.119-.714.54-1.816-.365-2.245-.846-.405-1.621.515-2.322.983a3.48,3.48,0,0,0-1.453,1.666,5.976,5.976,0,0,1-4.213,3.862c-1.023.266-1.97.517-1.625,1.889.262,1.032.578,2.051.875,3.074.13.452.383.087.573.069,3.92-.351,8.315-5.107,8.53-9.3m-22.121-94.736c-1.527-.081-3.056-.175-4.585-.235-1.3-.051-3.114-.687-2.16,1.9.177.484-.195.927-.578,1.323-.421.434-1.325.7-.864,1.592.437.837,1.294.681,2.037.714,4.446.206,8.183-1.979,12.071-3.642.354-.152.79-.506.517-.987a1.164,1.164,0,0,0-.835-.349c-1.867-.125-3.736-.21-5.6-.313m209.1-56.774c2.008,1.69,3.951.822,5.785.6Q383.655,46.861,392,45.6c.891-.137,2.355-.64,2.14-1.652-.262-1.24-1.46-1.337-2.863-1.034-7.18,1.554-14.4,2.915-21.794,4.379M206.776,44.849c-1.4-.544-2.366.461-3.414.781-3.392,1.034-6,5.4-5.619,8.908.233,2.16,1.854,2.12,3.392,2.1,2.109-.025.748-1.328.712-2.113a7.056,7.056,0,0,1,2.142-5.939,12.151,12.151,0,0,0,2.787-3.739m-8.946,1.122c2.568-5.12,7.388-7.659,11.621-10.88.244-.184.866-.674.405-1.278-8.453,1.7-14.055,5.051-12.026,12.158M179.6,344.491c.21.056.421.11.629.166,2.066-5.295,4.117-10.6,6.217-15.877.3-.763.45-1.648-.208-1.966-.752-.367-1.455.206-1.941,1a50.652,50.652,0,0,0-3.965,9.358c-.88,2.416-.754,4.86-.732,7.318m-35.511-31.819c2.4.036,4.809.025,6.81-1.753a2.417,2.417,0,0,0,.667-2.758c-.334-1.039-1.381-.88-2.192-.837a13.476,13.476,0,0,0-5.917,1.757c-1.088.609-3.224.479-2.986,2.151.251,1.778,2.254,1.191,3.618,1.44m4.645-210.03a15.752,15.752,0,0,0-6.47-.038c-4.941,1.016-9.729,2.375-13.533,5.962-.383.36-1.2.721-.5,1.372.226.213.7.761,1.281.322,2.765-2.084,6.186-2.655,9.244-4.041,3.244-1.471,6.3-3.309,9.982-3.577M270.21,114.109c4.321,2.091,8.6,2.532,12.967.4.528-.257,1.191-.629,1.115-1.245-.083-.672-.808-.737-1.422-.73-3.022.031-6.065-.13-9.056.19-1.119.119-2.733-.168-3.6,1.381M227.258,194.3c-.233-2.588.815-5.12-.542-7.927a8.337,8.337,0,0,0-.19,1.3c.049.974-.222,2.138-.99,2.378-.969.3-1.381-1-1.979-1.65-.325-.356-.419-.94-.768-1.254-.752-.674-1.131-2.109-2.7-1.578,1.742,3.4,2.048,7.73,7.171,8.733m68.966-102.75c.683-3.73,2.89-6.318,2.772-9.624-.029-.819.3-1.892-.748-2.145-.929-.226-1.368.7-1.825,1.426-2,3.206-1.35,6.434-.2,10.343M223.356,31.392c-4.54-.542-6.839,1.171-8.176,5.852,4.1.163,5.776-3.092,8.176-5.852m26.8-20.119c-.5-.663-.611-1.534-1.657-1.321a53.582,53.582,0,0,0-5.342,1.081A2.471,2.471,0,0,0,241.65,13.3a1.314,1.314,0,0,0,1.493,1.1c2.158-.425,4.533-.293,6.145-2.234.257-.309.562-.582.866-.891m-83.63,366.772c-1.043-3.206-.528-6.253-.056-9.723-5.337,5.469-4.972,8.115.056,9.723m226.9-329.029c-4.3-.7-7.726-.188-10.748,2.192,3.528.121,7.034.128,10.748-2.192M223.467,198.806c.629-1.7-1.16-1.809-2.588-2.158-1.585-.39-1.457.745-1.592,1.784-.28,2.178,1.533,2.832,2.823,3.186,1.384.376,1.081-1.276,1.357-2.812m-77.742-92.647c-2.919.51-4.921,1.444-7.1,1.359a2.468,2.468,0,0,0-2.557,1.122c-.228.4-.381.788.083,1.045a3.274,3.274,0,0,0,2.919.193,33.243,33.243,0,0,0,6.656-3.719M143.6,209.852c.255.882.011,2.42,1.813,2.725a1.385,1.385,0,0,0,1.628-1.657c-.331-1.406-.027-3.537-1.968-3.837-1.245-.19-1.352,1.337-1.473,2.769m28.777,152.99c2.51-2.494,2.528-5,2.252-7.527-.056-.5-.264-1.424-1.258-1.236-.719.137-.557.75-.587,1.2-.143,2.331-.255,4.661-.407,7.56M267.322,66.816c1.119-.184,2.369-.054,2.436-1.807.043-1.133-.6-1.46-1.375-1.2-1.243.419-3.271-.423-3.582,1.377-.179,1.023,1.422,1.386,2.521,1.63m-92.15,93.639c.19-3.331,1.2-6.763-1.316-10a22.753,22.753,0,0,0,1.316,10m82.212-34.586a26.846,26.846,0,0,0,3.566.808c1.851.163,1.5-1.661,2.044-2.622.248-.434-.087-.934-.833-.663-1.594.582-3.358.808-4.777,2.476m-85.311,8.3c.168-1.516.011-2.3-1.256-2.492a1.816,1.816,0,0,0-2.091,1.706,2.54,2.54,0,0,0,2,2.548c.907.168,1.258-1.258,1.348-1.762m73.961,15.749c-.477,1.822-1.786,3.517-.322,4.7.889.719,2.351-.625,2.72-1.542.77-1.923-1.574-1.845-2.4-3.157m-26.842,63.445c-.322-1.737.405-3.031-.349-4.365-.293-.522-.528-.855-1.086-.716-.669.166-.616.752-.421,1.207.481,1.117.484,2.433,1.856,3.875" transform="translate(68.392 0.001)" fill="#44464c"></path><path d="M237.716,211.047a45.857,45.857,0,0,0-2.174-6.141,11.309,11.309,0,0,1-.824-7.374c.132-.665.5-1.6-.43-1.54-5.456.336-6.136-4.3-7.733-7.616-3.51-7.3-14.238-12.485-22.1-10.43-3.761.983-5.23,4.491-8.091,6.837-2.633-10.62-2.075-21.078.506-31.517,3.036.824,10.144-2.107,11.6-4.867a5.11,5.11,0,0,0,.28-1.981c.219-3.533.195-7.086,1.092-10.551.454-1.751-.477-2.684-2.214-2.223-.864.231-1.686.631-2.848,1.079.233-2.783,1.039-4.874,3.434-6.1,1.616-.824,2.812-1.675,2.807-3.922a4.106,4.106,0,0,1,3.714-4.229c3.627-.685,6.987-1.09,10.4,1.2,2.561,1.717,2.6,4.124,2.9,6.53.139,1.131.365,2.1,1.354,2.487a15.949,15.949,0,0,1,8.335,8.041,59.468,59.468,0,0,0,7.356,11.153,7.076,7.076,0,0,1,1.493,3.656,6.2,6.2,0,0,0,1.731,3.783c1.419,1.424,1.137,2.447-.788,2.9-.732.17-1.249.233-1.243,1.169.009,1.052.869,1.265,1.487,1.426,1.531.4,3.121.566,4.686.842.676.119,1.484.282.855,1.213-1.341,1.981-2.183,4.278-4.191,5.848-1.1.857-1.952,1.417-3.17.383a17.162,17.162,0,0,0,.289,9.136c.6,2.245,2.12,1.63,3.385,1.451,1.422-.2,2.828-.806,2.107-2.792-.244-.672-.414-1.52.177-1.86.8-.463,1.334.349,1.872.9,3.734,3.851,6.533,4.323,11.668,2.279a1.157,1.157,0,0,0,.831-1.522c-.683-4.343-1.375-8.688-2.165-13.014-.562-3.089-.472-3.188,2.478-2.36,6.259,1.751,8.435,6.875,9.987,12.331.369,1.305.721,1.578,1.851,1.63,4.464.2,8.785-.922,13.175-1.379,6.125-.638,12.235-1.433,18.36-2.062,1.889-.193,2.678-1.106,2.051-2.792-.513-1.381.439-1.751,1.155-2.093,4.106-1.966,8.265-2.44,12.257.248.743.5,1.072.808,1.789.063.9-.934.083-1.453-.441-1.842-1.726-1.285-3.407-2.711-5.572-3.215-.638-.148-1.26-.338-1.334-.949-.105-.846.7-.976,1.328-1.249,2.031-.9,3.761.266,5.469.911,4.316,1.628,6.727,5,7.849,9.376a10.7,10.7,0,0,0,.817,2.848c.475.793,1.366,2.228,2.245,1.446.634-.564,1.632-2.183.71-3.36-1.545-1.966-2.734-3.949-2.391-6.575.1-.761-.64-1.148-1.068-1.65a2.132,2.132,0,0,1-.763-1.784c.685-4.379,1.265-8.776,2.069-13.132a7.277,7.277,0,0,1,2.7-4.406c3.324-2.624,4.267-5.892,3.134-10.012-1.256-4.571-1.731-9.2.311-13.768a4.625,4.625,0,0,0,.195-3.016c-1.589-4.992,1.451-8.583,3.745-12.275a30.5,30.5,0,0,0,4.276-11.592c.519-3.269.743-6.533.951-9.815.067-1.081.506-2.288,1.437-2.449,1.025-.177,1.854.7,2.357,1.842,1.733,3.931,3.192,7.9,2.742,12.306-.027.253-.132.573-.022.754,2.335,3.795.573,7.442-.66,10.927-1.925,5.436-.911,10.667.412,15.92.454,1.8.016,3.528.063,5.286.009.4.018.983-.551.92a1.469,1.469,0,0,1-.907-.766c-.831-1.634-1.594-3.3-2.371-4.959-.219-.468-.457-1.005-1.043-.9-.7.125-.47.813-.484,1.256-.1,3.2,1.82,5.827,2.559,8.794.472,1.9,1.435,3.786-.083,5.682-1.683-.215-2.548-1.746-3.779-2.673-1.263-.949-1.852-.5-2.248.58-.544,1.475-.864,3.031-1.307,4.547-.237.806.325.819.817.851,3.918.262,5.677,3.2,7.356,6.089,2.991,5.147,3.392,10.076-.683,15.138-3.855,4.791-6.694,10.309-9.723,15.669a14.03,14.03,0,0,1-1.724,2.138c-.351.407-1.066.663-.36,1.359a1.357,1.357,0,0,0,1.69.5,7.351,7.351,0,0,0,4.128-3.774c1.146-2.037,2.306-4.07,3.5-6.08.5-.84.887-1.838,2.205-2.039,1.028,3.913.289,7.831.179,11.726-.081,2.83.161,3.013,2.767,1.7a15.863,15.863,0,0,0,8.169-9.029c.3-.853,1.043-2.116-.394-2.841-1.249-.631-1.845.034-2.53,1.1-.954,1.486-2.754,2.241-3.712,3.79-.354.573-.918.347-1.37.264-.893-.163-.524-.922-.528-1.444a15.149,15.149,0,0,1,4.86-11.415c3.067-2.91,4.5-6.544,5.449-10.464,1.384-5.727.92-11.469-.132-17.184-.17-.916-.222-2.279-1.489-2.3-1.169-.02-1.075,1.395-1.379,2.154-.656,1.637.215,3.712-1.679,5.565-.911-5.113-1.755-9.864-2.6-14.612a12.565,12.565,0,0,1,.224-6.927,3.027,3.027,0,0,1,2.386-2.275c1.554-.213.3,1.856,1.692,1.78a17.56,17.56,0,0,1,5.447-5.794,7.307,7.307,0,0,1,4.784-1.007c1.941.195,2.648,1.482,1.6,3.112a17.428,17.428,0,0,1-2.134,2.458c-3.709,3.884-5.451,9.9-1.883,15.331a36.183,36.183,0,0,1,5.23,11.809,16.753,16.753,0,0,1-1.91,12.331c-1.919,3.358-1.52,6.743-.2,10.038,2.621,6.524,1.88,12.694-2.221,18.185a133.494,133.494,0,0,0-8.653,14.048c-3.542,6.206-8.606,9.678-15.906,9.967a33.052,33.052,0,0,1-10.32-1.175,4.838,4.838,0,0,0-4.773.878,13.718,13.718,0,0,1-12.042,2.845c-3.748-.846-6.564-4.737-6.658-9.313-.043-1.988-1.22-2.969-2.7-2.789-3.779.454-7.551-.114-11.321.284-1.9.2-1.9.625-.752,1.874,3.338,3.627,3.9,8.321,4.9,12.852,1.115,5.021-.976,9.841-.853,14.82.083,3.277.036,6.519,1.07,9.671a2.436,2.436,0,0,1,.24.949c-1.305,10.385,2.187,21.292-3.405,31.221-.367.649-.613,1.166-1.413,1.182a1.541,1.541,0,0,1-1.71-1.166,31.918,31.918,0,0,0-5.839-9.862c-1.3-1.636-3.013-2.935-4.426-4.489-3.56-3.924-6.6-8.149-7.645-13.522-.365-1.887-1.332-2.91-3.577-2.919-2.386-.009-4.531-1.469-6.938-1.894-4.086-.725-8.277-.967-12.217-2.521a7.09,7.09,0,0,0-3.235.065c-1.583.193-3.539.884-4.54-1.478-.553-1.31-2.194-.81-3.226-.931-5.492-.647-10.379-3.967-16.009-3.676a8.855,8.855,0,0,1-6.577-1.8c-2.169-1.726-5-1.715-7.721-1.307-.322.049-.64.137-.963.193-.848.146-2.055-1.375-2.5.275-.3,1.119,1.178,1.186,1.834,1.751,2.7,2.322,6.36,1.988,9.432,3.419a1.3,1.3,0,0,1-1.487.958c-4.314-2.223-9.365-2.024-13.661-4.207-2.7-1.375-2.982-3.054-.553-4.869,1.545-1.155,1.925-2.31,1.016-3.741-1.489-2.348-1.9-5.254-4.426-7.128-1.63-1.209-2.031-3.56-1.986-5.718a27.012,27.012,0,0,0,.134-3.817c-.546-4.457-2.456-6.134-7.345-6.526a28.933,28.933,0,0,0-6.047.1c-3.291.423-6.571-.468-9.768-1.117a31.66,31.66,0,0,0-5.758-.6,22.588,22.588,0,0,1-9-2c-1.265-.566-2.543-1.276-2.086-2.6s2-1.33,3.374-.985a11.821,11.821,0,0,0,3.41.748c1.316-.049,2.46-.481,2.727-1.713.392-1.8,1.525-1.76,2.843-1.6,1.493.181,2.848.2,3.517-1.565.419-1.106,1.478-1.254,2.512-1.18a41.905,41.905,0,0,0,11.8-.387c.828-.175,1.9-.495,1.769,1.227a4.7,4.7,0,0,0,.434,2.156c.146.3.69.4,1.054.591a3.627,3.627,0,0,0,.307-.826c1.175-10.672,14.263-12.378,21.875-6.647,3.743,2.819,6,6.667,8.064,10.737,2.145,4.227,3.743,8.722,6.425,12.7a18.283,18.283,0,0,0,3.629,3.427m-7.656-39.957a3.069,3.069,0,0,0,.582-3.967c-2.131-3.555-4.01-7.361-7.332-9.978a85.692,85.692,0,0,0-7.466-4.766,5.14,5.14,0,0,0,2.675,4.4,25.652,25.652,0,0,1,6.777,6.338c1.731,2.512,3.15,5.241,4.764,7.972m-14.547-23.923c3.13-1.3,2.234-4.26,3.163-6.371.224-.508.631-1.54-.479-1.9a1.644,1.644,0,0,0-2.131.9c-.625,2.393-1.948,4.8-.553,7.368" transform="translate(202.998 102.488)" fill="#44464c"></path><path d="M56.817,136.566a2.376,2.376,0,0,1,.157,2.322,122.624,122.624,0,0,0-6.512,22.159,92.575,92.575,0,0,0-1.11,25.423,70.92,70.92,0,0,0,4.437,19.36,5.654,5.654,0,0,0,2.178,2.852,19.8,19.8,0,0,1,5.292,5.76,58.149,58.149,0,0,0,19.508,19.184c4.245,2.57,8.422,5.31,13.253,6.81a10.356,10.356,0,0,0,3.732.45c5.673-.345,10.849,1.894,16.253,2.931.6.116.936.3.871.956-.051.495-.034.92-.7,1.153-9.5,3.333-18.754,7.428-29.3,3.378-3.862-1.484-7.8-3.45-12.145-3.555-4.916-.121-4.9-.13-9.4-3.038a2.94,2.94,0,0,1-1.567-2.01c-.116-.6-.374-1.334-1.312-1.229-.6.069-.855-.3-1.045-.851-2.082-6.045-6.418-10.849-9.1-16.584-2.879-6.15-5.351-12.369-5.736-19.217-.309-5.521-.4-11.053-.687-16.576-.627-11.9,2.048-23.229,5.912-34.344,1.384-3.983,2.366-8.151,5.433-11.386.9-.947-.081-2.895,1.6-3.947" transform="translate(54.23 169.167)" fill="#44464c"></path><path d="M214.2,185.46c-2.5-.41-4.748-.911-5.471-3.694-.291-1.108-1.5-1.122-2.268-1.357-9.875-3.049-18.319-8.691-26.379-14.852a89.96,89.96,0,0,1-20.251-20.869c-1.963-2.9-4.274-5.565-5.751-8.78-.363-.79-.916-1.63-.228-2.7.544.56,1.1,1.061,1.578,1.632a59.243,59.243,0,0,0,15.539,13.249,274.55,274.55,0,0,1,24.373,16.9c3.4,2.55,6.468,5.46,10.468,7.139a16.7,16.7,0,0,0,9.08,1.148c1.9-.278,1.889-.349,2.725,1.431a.748.748,0,0,0,.318.389c.842.3,1.966.318,1.8,1.661-.175,1.442-1.605,1.227-2.4,1.395-2.064.43-2.738,1.737-2.922,3.539-.119,1.182-.134,2.373-.208,3.77" transform="translate(190.174 165.007)" fill="#44464c"></path><path d="M110.38,67.406c.21-4.039,3.067-5.912,6.107-4.918.837.273.75.784.712,1.357-.394,5.7-.41,11.453-2.4,16.931-.278.763-.307,1.854-1.256,1.858-.828,0-1.054-1.1-1.182-1.762a89.561,89.561,0,0,1-1.983-13.466" transform="translate(136.73 77.079)" fill="#44464c"></path><path d="M137.589,5.356c-.349,3.125-1.822,5.06-3.213,6.953a2.224,2.224,0,0,1-3.092.654c-1.722-.985-.284-1.986-.031-2.733a16.346,16.346,0,0,0,1.171-3.757,2.907,2.907,0,0,1,2.87-2.626c1.518-.154,2.516.351,2.295,1.509" transform="translate(161.592 4.732)" fill="#44464c"></path><path d="M29.216,230.762l5.977-1.081c-1.746,1.979-3.716,2.1-5.977,1.081" transform="translate(36.19 284.51)" fill="#44464c"></path><path d="M256.865,204.216c-1.133-.06-1.894-.063-2.644-.15-.591-.069-1.556.215-1.357-.925.184-1.052,1.077-.58,1.652-.542a3.137,3.137,0,0,1,2.348,1.616" transform="translate(313.195 250.792)" fill="#44464c"></path></g></g></g></g></svg>